<?xml version="1.0" encoding="UTF-8"?>
<!DOCTYPE svg PUBLIC "-//W3C//DTD SVG 1.1//EN" "http://www.w3.org/Graphics/SVG/1.1/DTD/svg11.dtd">
<!-- Creator: CorelDRAW 2020 (64-Bit) -->
<svg xmlns="http://www.w3.org/2000/svg" xml:space="preserve" width="26.7628mm" height="54.8754mm" version="1.1" style="shape-rendering:geometricPrecision; text-rendering:geometricPrecision; image-rendering:optimizeQuality; fill-rule:evenodd; clip-rule:evenodd"
viewBox="0 0 392.98 805.77"
 xmlns:xlink="http://www.w3.org/1999/xlink"
 xmlns:xodm="http://www.corel.com/coreldraw/odm/2003">
 <defs>
  <style type="text/css">
   <![CDATA[
    .fil1 {fill:#FEFEFE}
    .fil2 {fill:#ED3237}
    .fil0 {fill:black}
    .fil4 {fill:#B96A31}
    .fil3 {fill:#ECC49B}
   ]]>
  </style>
 </defs>
 <g id="Capa_x0020_1">
  <metadata id="CorelCorpID_0Corel-Layer"/>
  <g id="_2244163694608">
   <path class="fil0" d="M333.39 509.56c5.11,87.31 6.56,174.83 5.12,262.28l-0.25 15.29 -25.84 1.71c-0.95,9.46 -12.76,16.94 -27.19,16.94 -12.38,0 -22.83,-5.5 -26.15,-13.04 -20.29,1.47 -40.66,2.42 -60.95,1.63 -4.51,-0.17 -8.98,-0.44 -13.43,-0.79 -3.7,7.1 -13.83,12.2 -25.74,12.2 -15.05,0 -27.25,-8.13 -27.25,-18.17 0,-0.79 0.08,-1.58 0.22,-2.35 -6.58,-1.54 -13.17,-3.25 -19.78,-5.13l-7.68 -2.18 -0.12 -7.98c-0.34,-23.45 -1.49,-46.94 -1.74,-70.35 -0.09,-8.31 -0.28,-18.11 3.32,-25.97l-2.02 0.86 0.05 -13.58c0.04,-12.95 -0.11,-25.89 -0.12,-38.84 -0.01,-9.84 0.03,-19.7 0.3,-29.54 0.19,-7.02 0.37,-14.83 1.49,-21.75l0.43 -2.65 1.82 -1.97 1.32 -1.44 -1.83 -135.77 -1.64 -44.92 1.01 -4.98 -0.01 -0.86c-5.96,1.89 -12.22,2.45 -18.54,0.58 -15.8,-4.67 -26.38,-24.59 -34.54,-37.75 -16.09,-25.93 -29.6,-51.76 -38.21,-81.15 -4.53,-15.44 -7.61,-31.22 -10.31,-47.07 -1.28,-7.54 -2.97,-14.98 -4.26,-22.49 -1.04,-6.08 -1.6,-12.07 0.94,-17.91 2.44,-5.6 6.9,-9.21 11.91,-12.42 5.9,-3.79 12.27,-7.17 18.33,-10.74l0.17 -0.1 66.73 -36.32 45.47 -28.17 -2.6 32.72 2.11 0c7.23,-35.68 27.02,-60.16 83.86,-57.27 74.19,3.78 69.26,67.97 70.71,119.1 1.62,57.19 14.22,40.71 36.86,73.6 5.41,5.75 9.55,12 12.37,19.62l1.13 3.06 -0.26 0.71c4.73,9.86 9.77,22.03 15.13,37.26l-0 0c7.79,21.65 11.08,45.46 14.7,67.51 2.25,13.68 5.29,27.25 7.44,40.9 1.5,9.53 2.47,19.55 -1.29,28.71 -1.71,4.17 -4.36,7.87 -7.58,11.18 3.47,1.96 6.62,5.08 9.35,9.92l6.64 11.81 -13.31 3.85 1.16 5.68c0.12,0.55 0.23,1.1 0.34,1.66 3.68,19.68 -3.97,37.62 -17.09,40.08 -13.12,2.46 -26.74,-11.51 -30.42,-31.19 0.41,2.61 0.26,4.58 -0.27,6.01zm-195.38 -344.25l-2.14 26.81 -26.47 22.45c7.12,6.68 17.56,11.39 27.5,15.35l0.22 -1.07c2.16,-21.02 2.05,-42.84 2.58,-63.55l-1.69 0zm139.87 -135.64l9.36 -18.14c1.84,-3.52 3.21,-6.04 4.1,-7.52 1.22,-2.01 2.68,-3.27 4.42,-3.76 1.74,-0.49 3.46,-0.22 5.18,0.82 2.09,1.26 3.05,2.83 2.87,4.69 -0.16,1.87 -1.07,4.17 -2.71,6.88 -0.97,1.6 -2.04,3.18 -3.2,4.74l-12.41 17c-1.47,2.04 -2.82,3.46 -4.07,4.26 -1.23,0.8 -2.5,0.82 -3.79,0.04 -1.31,-0.79 -1.88,-1.88 -1.72,-3.3 0.17,-1.41 0.81,-3.31 1.97,-5.7zm-10.45 26.41c-1.48,-0.89 -2.48,-2.16 -3,-3.78 -0.53,-1.63 -0.27,-3.3 0.78,-5.03 0.91,-1.51 2.2,-2.47 3.9,-2.89 1.69,-0.42 3.29,-0.17 4.82,0.76 1.53,0.92 2.51,2.23 2.95,3.94 0.44,1.71 0.21,3.31 -0.7,4.82 -1.03,1.7 -2.39,2.72 -4.06,3.03 -1.68,0.31 -3.24,0.03 -4.7,-0.85zm39.78 -30.46c1.39,-2.3 3.55,-4.19 6.46,-5.67 2.91,-1.47 6.26,-2.13 10.03,-1.97 3.79,0.16 7.56,1.39 11.35,3.68 3.52,2.12 6.24,4.65 8.15,7.59 1.91,2.92 2.92,5.94 3.03,9.06 0.12,3.11 -0.62,5.99 -2.19,8.6 -1.25,2.07 -2.77,3.63 -4.54,4.68 -1.77,1.05 -3.58,1.79 -5.41,2.21 -1.83,0.44 -5.04,1.1 -9.64,1.97 -1.28,0.24 -2.34,0.51 -3.18,0.78 -0.84,0.27 -1.53,0.57 -2.05,0.9 -0.53,0.32 -1.01,0.68 -1.43,1.07 -0.41,0.4 -1.12,1.1 -2.11,2.14 -1.98,2.25 -4.19,2.63 -6.62,1.16 -1.26,-0.76 -2.08,-1.82 -2.44,-3.15 -0.37,-1.36 -0.06,-2.83 0.93,-4.46 1.23,-2.04 2.61,-3.62 4.14,-4.73 1.54,-1.11 3.16,-1.91 4.89,-2.41 1.73,-0.5 3.96,-0.99 6.66,-1.48 2.37,-0.42 4.13,-0.77 5.22,-1.04 1.12,-0.28 2.17,-0.69 3.15,-1.26 0.98,-0.56 1.78,-1.35 2.38,-2.34 1.17,-1.94 1.44,-4.02 0.8,-6.22 -0.65,-2.21 -2.1,-4 -4.39,-5.38 -2.67,-1.62 -5.04,-2.13 -7.13,-1.54 -2.07,0.58 -4.34,1.93 -6.79,4.03 -2.49,2.23 -4.88,2.65 -7.18,1.26 -1.37,-0.83 -2.23,-1.99 -2.57,-3.52 -0.35,-1.52 -0.2,-2.84 0.47,-3.96zm-6.33 50.66c-1.48,-0.89 -2.48,-2.16 -3.01,-3.79 -0.53,-1.63 -0.26,-3.3 0.78,-5.03 0.92,-1.53 2.23,-2.49 3.93,-2.89 1.7,-0.4 3.32,-0.13 4.88,0.81 1.53,0.93 2.51,2.23 2.92,3.9 0.41,1.68 0.16,3.27 -0.76,4.8 -1.03,1.7 -2.39,2.72 -4.07,3.02 -1.68,0.31 -3.23,0.04 -4.67,-0.84z"/>
   <path class="fil1" d="M313.96 397.55c20.08,25.2 14.23,51.15 19.07,92.08l43.95 -12.71c-6.1,-10.85 -11.91,-6.9 -33.21,-6.09 44.04,-22.9 34.12,-26.87 24.06,-88.14 -5.18,-31.58 -9.74,-68.24 -29.02,-94.07 -12.5,71.47 -50.47,168.2 -82.88,229.21 -20.02,37.68 -36.25,63.75 -62.58,93.45 -92.95,104.84 -80.44,9.82 -78.27,158.52 63.27,17.98 104.67,15.6 169.24,10.13 0.06,-48.08 -8.2,-85.19 9.04,-100.84 0.2,37.02 1.44,74.04 14.78,97.91l-3.05 -237.6c24.5,53.83 -1.92,222.89 22.69,232.26 2.06,-124.64 -1.74,-249.34 -13.82,-374.11z"/>
   <path class="fil1" d="M174.39 471.21c35.51,-51.72 73.04,-144.59 90.64,-210 -53.31,5.76 -75.24,1.73 -125.84,-18.05l-0.07 -0.03 -0.24 -0.1 -2.91 -1.14 -0.97 -0.38 -0.87 -0.35c-15.96,-6.32 -32.4,-13.46 -40.64,-28.26l31.24 -26.5 6.36 -79.88 -26.32 16.31 -66.85 36.38c-33.26,19.56 -28.13,12 -21.39,51.65 7.72,45.39 16.05,74.26 46.94,124.06 18.75,30.23 26.16,43.7 54.49,24.56l1.94 111.22 0 -0 0.97 71.9c15.08,-10.7 40.56,-50.33 53.51,-71.41z"/>
   <path class="fil2" d="M114.45 572.23c-2.43,15.05 -1.47,63.53 -1.56,88.74 57.71,-24.69 105.47,-96.51 138.65,-161.55 16.54,-32.42 33.04,-72.47 46.56,-109.69l41.25 -114.21c-2.68,-7.27 -6.81,-13.25 -13.33,-19.44 -30.4,90.75 -51.11,199.63 -104.72,266.5 28.63,-80.79 50.9,-108.93 87.74,-227.55 14.25,-45.88 23.9,-49.56 -20.13,-58.55 -13.89,17.21 -31.29,79.11 -52.2,135.73 -24.23,65.59 -74.42,148.19 -122.26,200.02z"/>
   <path class="fil3" d="M263.5 251.88l1.37 -3.95 -19.34 -5.52 -0.03 -14.15c-5.68,-0.32 -15.29,6.24 -25.7,6.15 -11.35,-0.1 -16.91,-4.18 -25.61,-7.02l-0.2 15.72 -15.84 4.55c9.12,2.7 19.13,4.77 29.21,5.22 25.81,1.16 47,-0.22 56.14,-1z"/>
   <path class="fil3" d="M167.37 164.79c5.99,10.02 6.45,16.86 17.09,23.36 7.11,4.34 8.34,3.25 15.9,1.01 3.38,-1 9.59,2.32 16.55,2.37 6.74,0.05 14.1,-2.59 17.27,-2.34 7.57,0.61 7.59,4.45 18.05,-0.78 8.93,-4.47 12.64,-13.37 17.91,-23.81 0.07,8.44 -2.18,9.4 5.31,9.8 0.28,-9.58 -4.97,-20.42 -9.52,-30.08 -7.46,-15.84 -6.15,-20.3 -9.38,-35.61 -4.81,-22.84 -30.97,-12.29 -42.45,-14.5 -42.17,-8.1 -30.72,26.65 -41.36,45.86 -5.32,9.61 -11.47,21.15 -11.62,34.13 9.06,1.32 5.89,-2.47 6.24,-9.41z"/>
   <path class="fil3" d="M215.71 204.17l4.97 0.07c0.22,0.26 2.79,18.37 13.72,7.46 4.95,-4.94 3.98,-14.01 1.67,-20.35 -6.15,-0.17 -10.09,2.28 -17.89,2.21 -3.57,-0.03 -14.54,-2.27 -15.52,-1.9 -4.59,1.72 -6.44,18.55 2.81,22.06 8.75,3.31 8.36,-3.89 10.23,-9.55z"/>
  </g>
  <path class="fil0" d="M226.94 120.27c1.03,-2.98 4.26,-7.62 7.71,-7.58l3.82 0.55c3.03,0.53 5.15,1.96 7.58,3.77 2.43,1.82 5.64,5.17 7.27,8.32 2.46,4.78 -0.35,8.11 -1.2,12.38 -1.3,-0.83 -0.15,0.01 -1.05,-0.91l-1.82 -2.04c-4.18,-4.03 -3.5,-3.91 -8.58,-7.53 -6.28,-4.49 -12.68,-5.91 -13.73,-6.97z"/>
  <path class="fil0" d="M183.54 138.59c-1.09,-8.58 -1.63,-14.03 9.87,-19.39 7.53,-3.5 8.24,-1.08 10.74,-1.26 4.29,-0.31 6.49,6.13 6.45,9.77 -5.52,0.13 -10.72,1.37 -15.37,3.53 -7.86,3.64 -9.27,6.18 -11.7,7.35z"/>
  <path class="fil4" d="M185.32 151.42c1.72,-5.96 5.89,-10.15 12.34,-10.57 6.55,-0.43 9.32,1.25 11.54,10.57 -0.92,-0.9 -4.13,-3.23 -5.34,-3.65 -6.04,-2.06 -15.5,2.71 -18.54,3.65z"/>
  <path class="fil4" d="M225.33 151.41c0.59,-2.51 2.65,-7.28 3.89,-8.75 2.22,-2.62 14.73,-5.57 20.92,9.68 -5.3,-3.14 -16.33,-8.11 -22.08,-2.82l-2.74 1.89z"/>
  <path class="fil0" d="M209.21 151.42c-3.91,-4.92 -6.16,-5.42 -7.5,-5.76 -1.34,-0.34 -4.5,-0.34 -7.99,0.74 -3.49,1.07 -8.31,4.75 -8.31,4.75 0,0 5.22,-7.7 14.42,-7.43 6.02,-0.44 9.38,7.71 9.38,7.71z"/>
  <path class="fil0" d="M225.33 151.41c3.91,-4.92 6.16,-5.42 7.5,-5.76 1.34,-0.34 4.5,-0.34 7.99,0.74 3.49,1.07 8.31,4.75 8.31,4.75 0,0 -5.22,-7.7 -14.42,-7.43 -6.02,-0.44 -9.38,7.71 -9.38,7.71z"/>
 </g>
</svg>
