<?xml version="1.0" encoding="UTF-8"?>
<!DOCTYPE svg PUBLIC "-//W3C//DTD SVG 1.1//EN" "http://www.w3.org/Graphics/SVG/1.1/DTD/svg11.dtd">
<!-- Creator: CorelDRAW 2020 (64-Bit) -->
<svg xmlns="http://www.w3.org/2000/svg" xml:space="preserve" width="42.225mm" height="50.838mm" version="1.1" style="shape-rendering:geometricPrecision; text-rendering:geometricPrecision; image-rendering:optimizeQuality; fill-rule:evenodd; clip-rule:evenodd"
viewBox="0 0 3826.98 4607.6"
 xmlns:xlink="http://www.w3.org/1999/xlink"
 xmlns:xodm="http://www.corel.com/coreldraw/odm/2003">
 <defs>
  <style type="text/css">
   <![CDATA[
    .fil1 {fill:#FEFEFE}
    .fil3 {fill:#ED3237}
    .fil0 {fill:black}
    .fil4 {fill:#8E542F}
    .fil2 {fill:#ECC49B}
   ]]>
  </style>
 </defs>
 <g id="Capa_x0020_1">
  <metadata id="CorelCorpID_0Corel-Layer"/>
  <path class="fil0" d="M2640.7 4398.14l-1.56 94.37 -159.52 10.55c-5.85,58.39 -78.74,104.55 -167.83,104.55 -76.39,0 -140.89,-33.96 -161.39,-80.46 -125.25,9.1 -250.96,14.91 -376.18,10.06 -27.85,-1.08 -55.46,-2.71 -82.88,-4.88 -22.87,43.83 -85.37,75.28 -158.91,75.28 -92.9,0 -168.21,-50.2 -168.21,-112.14 0,-4.9 0.47,-9.74 1.39,-14.48 -40.63,-9.48 -81.27,-20.05 -122.09,-31.65l-47.4 -13.47 -0.72 -49.28c-2.11,-144.76 -9.23,-289.73 -10.74,-434.21 -0.53,-51.29 -1.72,-111.79 20.52,-160.28l-12.47 5.34 0.28 -83.8c0.26,-79.9 -0.67,-159.83 -0.73,-239.73 -0.05,-60.75 0.16,-121.59 1.83,-182.33 1.19,-43.31 2.3,-91.52 9.22,-134.26l2.65 -16.38 11.26 -12.19 8.15 -8.91 -15.3 -1136.58c-18.72,-20.12 -36.82,-41.31 -53.94,-61.21 -46.1,-53.57 -90.93,-108.4 -135.29,-163.41 -117.21,-145.38 -231.59,-293.44 -344.22,-442.39 -115.41,-152.62 -229.69,-306.85 -339.42,-463.6 -40.79,-58.28 -81.31,-117.19 -119.45,-177.24 -21.74,-34.23 -50.15,-78.21 -64.5,-116.06l-12.36 -32.57 24.51 -24.77c12.24,-12.37 23.99,-25.02 35.27,-37.97l-48.71 -29.08 -64.5 -65.76c-2.47,-2.44 -4.91,-4.92 -7.33,-7.48 -85.1,-89.6 -105.67,-208.22 -45.94,-264.95 59.73,-56.74 177.15,-30.09 262.24,59.5 -56.95,-63.36 24.92,-89.02 54.35,-50.94 5.88,7.62 12.34,19.92 18.92,34.71l45.23 -140.04 58.49 139.17c83.79,123.03 140.46,195.67 255.61,297.39 187.94,166.01 438.21,354.08 680.16,511.3 39.75,-486.59 -100.46,-975.65 548.09,-942.7 457.94,23.35 427.48,419.56 436.42,735.1 3.05,107.39 12.37,172.66 27.8,217.26 3.71,-1.6 7.48,-3.17 11.31,-4.73 92.06,-45.52 109.66,-51.23 162.79,-93.79l0.01 -0.93 6.19 -4.06c13.4,-10.89 29.09,-24.06 48.58,-40.58l-0.1 7.62c281.42,-198.22 488.29,-463.26 760.37,-644.22l32.49 43.39c11.14,-29.62 22.95,-56.47 33.05,-69.56 29.43,-38.09 111.31,-12.44 54.35,50.94 85.09,-89.6 202.51,-116.25 262.24,-59.51 59.73,56.73 39.16,175.36 -45.94,264.95 -2.42,2.56 -4.87,5.04 -7.34,7.48l-64.49 65.75 -25.64 15.31 27.36 36.53 -10.62 27.53c-48.78,126.41 -129.93,255.77 -204.99,368.3 -96.74,145.03 -201.95,285.5 -308.7,423.29 -173.19,223.56 -355.12,439.88 -528.81,662.66 -16.56,26.12 -29.77,59.44 -40.11,94.46 -7.12,95.94 -11.77,158.64 -11.51,168.74 4.65,178.94 22.74,285.52 38.76,465.09 63.01,396.83 37.02,1227.35 29.95,1655.97z"/>
  <path class="fil1" d="M2391.02 2256.99c-82.99,211.77 -174.61,412.66 -260,573.39 -123.55,232.56 -223.75,393.5 -386.27,576.8 -573.72,647.1 -496.51,60.6 -483.14,978.45 390.55,110.99 646.04,96.31 1044.58,62.54 0.34,-296.79 -50.6,-525.81 55.8,-622.45 1.22,228.49 8.9,456.99 91.25,604.3l-18.8 -1466.55c151.2,332.25 -11.84,1375.78 140.03,1433.58 11.88,-720.13 -7.91,-1440.58 -71.63,-2161.42l0.01 0c12.78,-106.58 41.54,-199.24 76.48,-253.1 276.85,-355.26 889.93,-1063.32 1036.21,-1442.41l-218.04 -299.93c17.27,131.15 47.6,164.25 107.5,284.86 -80.34,-62.46 -93.58,-110.2 -160.32,-202.47 -177.4,147.93 -518.52,450.54 -695.25,565.18l-0.38 30.39c-4.55,359.65 -125.4,994.43 -258.03,1338.86z"/>
  <path class="fil2" d="M2086.72 1142.92l-3.54 -1.01 -0.19 -87.35c-35.03,-1.96 -94.37,38.5 -158.63,37.95 -70.09,-0.6 -104.38,-25.79 -158.1,-43.35l-1.21 97.05 -13.81 3.96c131.8,62.63 216.62,40.46 335.49,-7.25z"/>
  <path class="fil2" d="M1600.75 662.75c36.94,61.85 39.79,104.06 105.5,144.18 43.88,26.79 51.5,20.08 98.16,6.22 20.84,-6.19 59.21,14.3 102.15,14.64 41.63,0.34 87.04,-16 106.57,-14.42 46.69,3.75 46.84,27.48 111.43,-4.83 55.13,-27.57 78.03,-82.54 110.55,-146.97 0.43,52.08 -13.45,58.05 32.8,60.46 1.75,-59.11 -30.69,-126.06 -58.75,-185.67 -46.04,-97.77 -37.98,-125.32 -57.89,-219.78 -29.69,-141 -191.16,-75.88 -261.99,-89.49 -260.26,-50.02 -189.6,164.46 -255.3,283.09 -32.86,59.33 -70.81,130.54 -71.75,210.66 55.91,8.17 36.33,-15.22 38.53,-58.09z"/>
  <path class="fil2" d="M1899.11 905.87l30.69 0.43c1.39,1.61 17.23,113.39 84.7,46.03 30.57,-30.52 24.56,-86.45 10.33,-125.61 -37.97,-1.06 -62.28,14.08 -110.43,13.64 -22.04,-0.2 -89.73,-13.98 -95.81,-11.7 -28.32,10.59 -39.74,114.51 17.37,136.14 53.99,20.41 51.6,-23.98 63.14,-58.93z"/>
  <path class="fil3" d="M1257.7 3166.1c-15.03,92.88 -9.1,392.11 -9.62,547.7 356.22,-152.42 651.02,-595.72 855.8,-997.14 102.1,-200.13 203.94,-447.34 287.38,-677.03 136.74,-391.14 205.67,-773.78 210.08,-1122.12 -29.56,25.06 -63.5,53.62 -84.74,51.38 138.65,302.01 -378.59,1615.34 -599.39,1890.74 176.73,-498.64 314.18,-672.34 541.55,-1404.53 70.86,-228.13 55.37,-493.09 -6,-458.94l0 0.01c-229.97,92.46 -197.13,241.31 -278.32,484.52 -44.69,133.88 -112.95,314.8 -195.64,505.89 -194.63,385.13 -425.78,859.57 -721.09,1179.51zm1195.06 -2169.92l0 0.01z"/>
  <path class="fil1" d="M1627.7 2542.54c218.34,-317.99 449,-887.99 558.17,-1291.47 13.71,-36.91 23.48,-71.46 27.86,-102.9 -384.95,154.87 -368.33,113.18 -751.66,-97.69 -261.55,-193.1 -799.78,-537.67 -969.66,-787.11 -34.55,114.05 -87.9,168.58 -127.57,235.06 12.4,-94.1 58.78,-172.19 37.2,-282.28 -41.14,127.36 -109.04,233.91 -198.13,323.97 63.62,167.72 924.89,1298.49 1079.98,1440.44l13.5 1002.74c93.07,-66.03 250.35,-310.68 330.3,-440.75z"/>
  <path class="fil0" d="M1974.26 404.1c6.13,6.33 43.93,15.2 80.87,42.21 29.84,21.82 25.79,21.04 50.32,45.22l10.64 12.18c5.32,5.47 -1.48,0.44 6.17,5.44 5.33,-25.27 22.23,-44.83 7.97,-73.29 -9.42,-18.78 -28.2,-38.87 -42.51,-49.81 -14.27,-10.91 -26.75,-19.5 -44.67,-22.86l-22.59 -3.5c-20.46,-0.44 -39.87,26.84 -46.2,44.41z"/>
  <path class="fil0" d="M1715.86 509.73c14.47,-6.75 22.97,-21.7 69.8,-42.75 27.66,-12.44 58.56,-19.46 91.29,-19.86 0.48,-21.56 -12.16,-59.87 -37.59,-58.32 -14.84,0.91 -18.89,-13.53 -63.74,6.73 -68.47,30.92 -65.64,63.32 -59.76,114.2z"/>
  <path class="fil4" d="M1725.6 585.91c21.1,-6.28 94.49,-42.94 126.01,-10.37 4.89,5.06 -1.02,0.49 4.84,5.39 6.02,5.03 0.76,2.4 10.68,6.53 -12.59,-55.32 -28.86,-65.48 -67.7,-63.38 -38.27,2.07 -63.2,26.65 -73.82,61.83z"/>
  <path class="fil4" d="M1962.65 588.47l16.35 -11.01c34.38,-30.97 99.43,-0.77 130.62,18.18 -35.66,-90.8 -109.99,-74.11 -123.32,-58.76 -7.48,8.6 -20.01,36.74 -23.65,51.59z"/>
 </g>
</svg>
