<?xml version="1.0" encoding="UTF-8"?>
<!DOCTYPE svg PUBLIC "-//W3C//DTD SVG 1.1//EN" "http://www.w3.org/Graphics/SVG/1.1/DTD/svg11.dtd">
<!-- Creator: CorelDRAW 2020 (64-Bit) -->
<svg xmlns="http://www.w3.org/2000/svg" xml:space="preserve" width="27.1153mm" height="27.0312mm" version="1.1" style="shape-rendering:geometricPrecision; text-rendering:geometricPrecision; image-rendering:optimizeQuality; fill-rule:evenodd; clip-rule:evenodd"
viewBox="0 0 258.44 257.64"
 xmlns:xlink="http://www.w3.org/1999/xlink"
 xmlns:xodm="http://www.corel.com/coreldraw/odm/2003">
 <defs>
  <style type="text/css">
   <![CDATA[
    .fil1 {fill:#FEFEFE}
    .fil2 {fill:#ED3237}
    .fil0 {fill:black}
    .fil3 {fill:#ECC49B}
    .fil5 {fill:#ECE3DA}
    .fil4 {fill:#EDE1D5}
   ]]>
  </style>
 </defs>
 <g id="Capa_x0020_1">
  <metadata id="CorelCorpID_0Corel-Layer"/>
  <g id="_2244222499168">
   <path class="fil0" d="M77.06 257.64l-0.24 -18.07 -1.06 -29.16c-5.79,5.33 -12.93,8.83 -21.35,8.27 -23.31,-1.54 -39.33,-32.18 -42.5,-52.82 -4.15,-27.03 -6.75,-54.26 -10.81,-81.3l-1.1 -7.31 6.78 -1.73c-0.31,-1.66 -0.47,-3.39 -0.47,-5.17 0,-9.54 4.63,-17.6 11.01,-20.25l-0 0c0,0 2.93,-4.91 1.91,-8.71 -1.01,-3.8 -3.7,-14.15 2.62,-15.85 4.24,7.23 8.84,22.45 10.89,29.67 2.45,3.27 4.12,7.63 4.56,12.5l5.16 -1.32 3.12 5.32c1.78,3.04 2.7,6.37 1.95,9.8 1.05,0.47 2.05,1.09 2.99,1.92 3.96,3.49 4.46,8.58 4.97,13.48 0.72,7.02 3.3,20.85 6.8,32.22 2.04,-5.57 4.39,-11.09 8.96,-15.09 6.85,-6 16.08,-6.12 24.89,-4.35 5.42,-52.65 -11.16,-113.09 58.85,-109.52 48.16,2.45 44.95,44.12 45.89,77.3 1.05,37.12 9.23,26.42 23.93,47.77 3.51,3.73 6.2,7.79 8.03,12.73l0.73 1.99 -0.17 0.46c3.07,6.4 6.34,14.3 9.82,24.18l-0 0c5.06,14.06 7.19,29.51 9.54,43.82 1.46,8.88 3.43,17.69 4.83,26.54 0.98,6.19 1.6,12.69 -0.84,18.64 -0.59,1.43 -1.35,2.78 -2.24,4.05l-177.44 0z"/>
   <path class="fil1" d="M210.91 219.18c9.17,11.51 10.01,23.25 10.79,38.46l23.39 0c10.71,-9.04 5.78,-17.71 0.78,-48.1 -3.37,-20.5 -6.32,-44.29 -18.84,-61.06 -5.75,32.85 -19.78,73.92 -34.95,109.16l22.15 0c-0.98,-12.82 -2.08,-25.64 -3.32,-38.46z"/>
   <path class="fil1" d="M126.35 257.64c21.15,-34.59 42.36,-88.2 52.79,-126.96 -5.13,0.55 -9.92,0.95 -14.41,1.2l0 -0 -0.01 0c-11.74,0.64 -21.47,0.24 -30.22,-1.17l-0.23 0.2c-10.25,-2.45 -18.81,-6.63 -27.93,-9.8 -38.14,-13.26 -31.73,6.87 -43.73,28.5 -7.7,-9.84 -13.89,-38.38 -15.29,-51.86 -1.16,-11.25 -1.68,-9.56 -19.43,-8.74 8.06,-6.33 14.29,-6.89 10.61,-13.16l-29.32 7.5c4.03,26.86 6.57,53.68 10.8,81.28 4.55,29.61 33.72,66.49 56.69,32.04l6.41 -9.61 1.25 34.21 0.49 36.38 41.52 0z"/>
   <path class="fil2" d="M183.34 257.64c6.17,-14.21 12.06,-29.2 17.27,-43.54l26.77 -74.13c-1.74,-4.72 -4.42,-8.6 -8.65,-12.62 -14.13,42.17 -25.03,90.38 -42.86,130.29l7.47 0zm-15.65 0c11.81,-27.33 23.72,-52.53 40.01,-105.01 9.25,-29.78 15.51,-32.17 -13.07,-38 -9.02,11.17 -20.31,51.35 -33.88,88.1 -6.35,17.18 -15.44,36.17 -26.07,54.91l33 0z"/>
   <path class="fil3" d="M179.11 124.62l0.89 -2.56 -12.56 -3.58 -0.02 -9.19c-3.68,-0.21 -9.92,4.05 -16.68,3.99 -7.37,-0.06 -10.98,-2.71 -16.63,-4.56l-0.13 10.21 -10.28 2.95c5.92,1.75 12.42,3.09 18.96,3.39 16.75,0.75 30.51,-0.14 36.44,-0.65z"/>
   <path class="fil3" d="M115.76 68.09c3.88,6.5 4.18,10.94 11.09,15.16 4.61,2.82 5.42,2.11 10.32,0.65 2.19,-0.65 6.23,1.5 10.74,1.54 4.38,0.04 9.15,-1.68 11.21,-1.52 4.91,0.39 4.93,2.89 11.72,-0.51 5.8,-2.9 8.21,-8.68 11.63,-15.46 0.04,5.48 -1.41,6.1 3.45,6.36 0.18,-6.22 -3.23,-13.26 -6.18,-19.53 -4.84,-10.28 -3.99,-13.18 -6.09,-23.11 -3.12,-14.83 -20.1,-7.98 -27.55,-9.41 -27.37,-5.26 -19.94,17.3 -26.85,29.77 -3.46,6.24 -7.45,13.73 -7.54,22.15 5.88,0.86 3.82,-1.6 4.05,-6.11z"/>
   <path class="fil3" d="M147.13 93.65l3.23 0.04c0.15,0.17 1.81,11.92 8.91,4.84 3.21,-3.21 2.58,-9.09 1.09,-13.21 -3.99,-0.11 -6.55,1.48 -11.61,1.43 -2.32,-0.02 -9.44,-1.47 -10.08,-1.23 -2.98,1.11 -4.18,12.04 1.83,14.32 5.68,2.15 5.43,-2.52 6.64,-6.2z"/>
  </g>
  <path class="fil0" d="M123.5 51.63c3.45,-1 6.17,-1.79 10.07,-1.89 4.52,-0.12 6.66,0.89 10.57,1.47 0.66,-7.84 -2.13,-6.99 -3.24,-7.83 -0.78,-0.59 -0.42,-0.55 -1.58,-0.97 -3.83,-1.38 -9.33,-0.25 -12.66,1.71 -2.4,1.4 -2.61,3.94 -3.15,7.52z"/>
  <path class="fil0" d="M153 50.14c10.78,-0.53 11.01,-0.37 20.51,2.85 -0.08,-3.82 0.29,-5.89 -2.28,-7.64 -3.61,-2.45 -9.1,-3.92 -13.68,-2.34l-0.65 0.18c-0.04,0.01 -0.68,0.09 -0.89,0.17 -1.86,0.74 -3.32,4.04 -3.01,6.78z"/>
  <path class="fil4" d="M165.79 60.49c-0.75,1 -1.57,2.31 -3.71,1.94 -3.42,-0.59 -3.75,-5.19 -1.01,-6.43 2.07,-0.94 3.32,0.16 4.41,0.91l-1.68 1.09c-0.62,0.89 -0.34,0.93 -0.2,1.92 0.92,0.27 1.6,0.15 2.18,0.58zm-9.78 0.73c4,4.55 12.13,0.86 14.46,0.36 -0.75,-1.44 -1.68,-2.8 -2.8,-3.93 -2.66,-2.68 -9.43,-4.88 -11.65,3.56z"/>
  <path class="fil5" d="M136.03 59.88c1.19,0.39 1.15,0.65 2.39,0.05 -3.77,6.7 -9.69,-1.11 -5.2,-3.79 1.96,-1.17 3.49,-0.11 4.67,0.72 -0.07,0.06 -0.19,0.03 -0.23,0.14 -0.18,0.56 -0.52,-0.02 -1.33,0.8 -0.82,0.83 -0.47,0.92 -0.3,2.08zm-9.71 1.7c1.61,0.86 5.28,1.8 7.3,1.86 3.5,0.1 5.16,-0.53 7.3,-1.89 -0.28,-1.48 -1.31,-3.49 -1.89,-4.42 -1.19,-1.9 -2.37,-1.45 -5.07,-1.4 -5.03,0.1 -5.37,3.31 -7.63,5.84z"/>
  <path class="fil0" d="M165.79 60.49c-0.58,-0.43 -1.27,-0.3 -2.18,-0.58 -0.15,-0.99 -0.43,-1.03 0.2,-1.92l1.68 -1.09c-1.09,-0.75 -2.34,-1.85 -4.41,-0.91 -2.74,1.25 -2.41,5.85 1.01,6.43 2.13,0.37 2.96,-0.94 3.71,-1.94z"/>
  <path class="fil0" d="M136.03 59.88c-0.17,-1.16 -0.52,-1.25 0.3,-2.08 0.81,-0.82 1.16,-0.24 1.33,-0.8 0.03,-0.11 0.16,-0.08 0.23,-0.14 -1.18,-0.83 -2.71,-1.89 -4.67,-0.72 -4.48,2.67 1.44,10.48 5.2,3.79 -1.24,0.6 -1.2,0.34 -2.39,-0.05z"/>
 </g>
</svg>
