<?xml version="1.0" encoding="UTF-8"?>
<!DOCTYPE svg PUBLIC "-//W3C//DTD SVG 1.1//EN" "http://www.w3.org/Graphics/SVG/1.1/DTD/svg11.dtd">
<!-- Creator: CorelDRAW 2020 (64-Bit) -->
<svg xmlns="http://www.w3.org/2000/svg" xml:space="preserve" width="37.574mm" height="50.8006mm" version="1.1" style="shape-rendering:geometricPrecision; text-rendering:geometricPrecision; image-rendering:optimizeQuality; fill-rule:evenodd; clip-rule:evenodd"
viewBox="0 0 6664.87 9011"
 xmlns:xlink="http://www.w3.org/1999/xlink"
 xmlns:xodm="http://www.corel.com/coreldraw/odm/2003">
 <defs>
  <style type="text/css">
   <![CDATA[
    .fil1 {fill:#FEFEFE}
    .fil3 {fill:#ED3237}
    .fil0 {fill:black}
    .fil2 {fill:#ECC49B}
    .fil5 {fill:#ECE3DA}
    .fil4 {fill:#EDE1D5}
   ]]>
  </style>
 </defs>
 <g id="Capa_x0020_1">
  <metadata id="CorelCorpID_0Corel-Layer"/>
  <g id="_2244218805600">
   <path class="fil0" d="M5945.04 5432.72c61.78,1054.72 79.29,2112.01 61.85,3168.34l-3.05 184.69 -312.21 20.65c-11.46,114.29 -154.11,204.61 -328.45,204.61 -149.51,0 -275.74,-66.46 -315.86,-157.48 -245.14,17.81 -491.16,29.18 -736.23,19.69 -54.51,-2.11 -108.54,-5.3 -162.21,-9.54 -44.75,85.78 -167.07,147.33 -311,147.33 -181.81,0 -329.2,-98.25 -329.2,-219.47 0,-9.6 0.92,-19.07 2.71,-28.35 -79.52,-18.55 -159.06,-39.24 -238.95,-61.94l-92.77 -26.36 -1.4 -96.44c-4.13,-283.31 -18.06,-567.03 -21.02,-849.81 -1.05,-100.38 -3.37,-218.78 40.16,-313.7l-24.41 10.45 0.55 -164.01c0.51,-156.38 -1.31,-312.81 -1.42,-469.19 -0.09,-118.9 0.32,-237.97 3.58,-356.83 2.32,-84.77 4.51,-179.12 18.04,-262.77l5.18 -32.05 22.03 -23.86 15.95 -17.44 -50.46 -2264.86c-655.17,-568.02 -2488.12,-1890.05 -2680.1,-2275.82 16.98,-85.6 30.03,-174.99 40.39,-266.67l-205.51 -132.86 -19.74 -10.61c-17.28,-17.95 -33.63,-37.53 -48.83,-58.71 -103.52,-144.19 -120.96,-316.39 -53.36,-425.55l-0.02 0.02c0,0 -9.08,-106 -65.56,-152.44 -56.5,-46.44 -209.54,-173.81 -132.43,-267.95 142.61,63.24 377.34,243.51 486.62,330.39 27.58,8.66 55.17,20.93 82.02,36.63 4.77,-117.48 9.56,-233.17 16.59,-344.31 899.28,677.8 1883.17,1352.64 2954.9,1748.34 48.51,-1235.54 -157.16,-2075.66 1107.93,-2011.38 896.25,45.69 836.63,821.13 854.14,1438.67 19.58,690.88 171.83,491.73 445.29,889.05 65.29,69.41 115.39,144.97 149.37,237l13.64 36.95 -3.09 8.55c57.12,119.13 118.03,266.07 182.79,450.07l-0.04 0c94.12,261.58 133.82,549.15 177.56,815.52 27.14,165.21 63.86,329.2 89.83,494.02 18.16,115.17 29.8,236.13 -15.57,346.83 -20.66,50.43 -52.68,95.08 -91.56,135.04 41.97,23.7 80,61.39 112.9,119.84l80.26 142.63 -160.78 46.47 13.98 68.56c1.45,6.63 2.84,13.32 4.1,20.08 44.49,237.72 -47.93,454.46 -206.4,484.12 -158.47,29.66 -323.01,-139.03 -367.48,-376.74 5,31.5 3.1,55.32 -3.25,72.6z"/>
   <path class="fil1" d="M5710.37 4079.66c242.53,304.38 171.92,617.92 230.31,1112.38l530.97 -153.49c-73.74,-131.01 -143.93,-83.4 -401.14,-73.59 532.05,-276.61 412.16,-324.62 290.62,-1064.7 -62.63,-381.53 -117.62,-824.28 -350.54,-1136.38 -150.99,863.41 -609.64,2031.81 -1001.18,2768.88 -241.8,455.16 -437.9,770.13 -755.97,1128.86 -1122.83,1266.46 -971.74,118.6 -945.56,1914.94 764.35,217.22 1264.38,188.48 2044.37,122.39 0.67,-580.85 -99.03,-1029.07 109.21,-1218.21 2.39,447.19 17.42,894.38 178.59,1182.7l-36.79 -2870.22c295.92,650.26 -23.17,2692.57 274.05,2805.69 24.85,-1505.65 -21.05,-3012 -166.93,-4519.25z"/>
   <path class="fil2" d="M5115.08 2342.55l16.59 -47.7 -233.66 -66.62 -0.37 -170.96c-68.56,-3.83 -184.69,75.35 -310.45,74.27 -137.17,-1.17 -204.29,-50.48 -309.42,-84.84l-2.38 189.94 -191.32 54.92c110.19,32.62 231.05,57.6 352.86,63.08 311.82,14.05 567.72,-2.63 678.16,-12.08z"/>
   <path class="fil2" d="M3971.59 1290.46c72.3,121.04 77.87,203.67 206.47,282.18 85.87,52.43 100.79,39.31 192.1,12.17 40.78,-12.12 115.88,27.99 199.92,28.65 81.47,0.66 170.36,-31.31 208.56,-28.22 91.39,7.34 91.67,53.78 218.09,-9.45 107.9,-53.96 152.71,-161.54 216.35,-287.64 0.83,101.92 -26.32,113.61 64.19,118.33 3.42,-115.69 -60.06,-246.72 -114.98,-363.38 -90.11,-191.36 -74.32,-245.26 -113.29,-430.13 -58.11,-275.95 -374.13,-148.5 -512.75,-175.14 -509.36,-97.9 -371.08,321.87 -499.66,554.05 -64.32,116.11 -138.59,255.48 -140.41,412.28 109.43,15.98 71.09,-29.78 75.4,-113.68z"/>
   <path class="fil2" d="M4555.5 1766.26l60.06 0.83c2.71,3.16 33.72,221.92 165.76,90.09 59.83,-59.72 48.07,-169.2 20.22,-245.83 -74.3,-2.08 -121.9,27.56 -216.12,26.7 -43.14,-0.39 -175.61,-27.37 -187.51,-22.9 -55.43,20.74 -77.78,224.1 34,266.44 105.67,39.95 100.98,-46.93 123.58,-115.33z"/>
   <path class="fil1" d="M4024.34 4969.42c428.98,-624.77 882.27,-1746.62 1094.91,-2536.78 -551.99,59.6 -922.75,-0.21 -1226.67,-114.25 -48.25,-27.6 -110.24,-54.9 -189.64,-81.42 -840.66,-280.72 -1995.43,-944.81 -2752.4,-1471.17 -32.18,117.25 -62.38,279.52 -129.72,371.36 26.27,-216.88 91.65,-383.12 -73.03,-528.72 -18.04,285.47 -17.21,655.06 -71.2,927.32 36.68,73.68 2408.02,1988.43 2673.43,2226.03l27.87 2070.22c182.15,-129.22 489.96,-608.04 646.44,-862.6z"/>
   <path class="fil3" d="M3300.2 6189.81c-29.41,181.78 -17.81,767.42 -18.82,1071.92 697.17,-298.3 1274.12,-1165.9 1674.91,-1951.51 199.82,-391.67 399.14,-875.49 562.44,-1325.03l498.26 -1379.66c-32.41,-87.77 -82.3,-160.09 -161.03,-234.87 -367.25,1096.24 -617.41,2411.51 -1265.02,3219.37 345.89,-975.91 614.89,-1315.86 1059.88,-2748.84 172.11,-554.19 288.7,-598.73 -243.17,-707.25 -167.84,207.92 -377.96,955.7 -630.53,1639.57 -292.64,792.3 -898.96,1790.13 -1476.92,2416.28z"/>
  </g>
  <path class="fil0" d="M4132.68 963.93c172.79,-48.37 202.76,-40.19 374.27,-7.5 3.83,-56.89 0.96,-131.28 -47.56,-137.01 -15.18,-1.81 -25.54,-38.28 -125.62,-33.9 -50.93,2.22 -109.14,17.51 -145.38,41.56 -41.45,27.51 -45.83,73.22 -55.71,136.85z"/>
  <path class="fil0" d="M4669.4 938.84c286.68,-26.34 290.83,39.8 372.96,51.6 0.59,-68.36 3.96,-107.21 -39.09,-140.41 -31.98,-24.67 -82.93,-45.99 -129.4,-54.79 -74.48,-14.1 -87.61,-0.32 -130.62,9.84 -56.03,13.25 -80.94,77.28 -73.84,133.76z"/>
  <path class="fil4" d="M4183.48 1141.44c30.92,15.73 87.36,30.46 115.44,34.2 71.13,9.49 84.13,-10.71 133.53,-15.82l24.19 -12.04c-13.18,-74.71 -34.66,-121.08 -100.54,-124.18l22.74 16.74c15.17,11.57 8.44,3.25 18.38,18.94 -14.39,2.47 -23.24,2.8 -36.98,10.59l-1.7 36.98c18.96,8.3 31.41,13.62 44.33,2.29 -9.12,45.87 -67.74,67.83 -104.16,30.54 -41.47,-42.45 -11.97,-80.83 23.34,-108.38l9.01 -7.22c-38.53,1.84 -78.21,12.84 -97.22,32.89 -14.07,14.81 -42.55,59.87 -50.36,84.47z"/>
  <path class="fil5" d="M4904.62 1117.39c-83.47,121.58 -178.2,-56.05 -81.28,-84.1 42.16,-12.19 54.1,8.43 73.93,25.06 -64.07,19.09 -39.73,49.42 -15.02,56.07 10.43,2.8 0.99,-0.18 12.52,1.28 17.33,2.22 -2.55,-5.29 9.84,1.69zm-182.03 13.46c21.8,36.49 -28.61,-16.82 18.91,19.28 10.31,7.84 15.61,10.63 29.45,15.79 80.07,29.91 142.31,-2.15 217.63,-24.73 -45.78,-57.86 -40.05,-99.85 -131.97,-113.86 -36.93,-5.64 -77.57,-5.76 -95.8,22.07 -10.54,16.05 -31.01,78.26 -38.21,81.45z"/>
  <path class="fil0" d="M4183.48 1141.44c7.8,-24.6 36.29,-69.66 50.36,-84.47 19.02,-20.04 58.69,-31.04 97.22,-32.89l-9.01 7.22c-35.32,27.55 -64.81,65.93 -23.34,108.38 36.42,37.29 95.04,15.33 104.16,-30.54 -12.91,11.33 -25.37,6.01 -44.33,-2.29l1.7 -36.98c13.75,-7.79 22.6,-8.12 36.98,-10.59 -9.93,-15.7 -3.21,-7.38 -18.38,-18.94l-22.74 -16.74c65.88,3.1 87.36,49.47 100.54,124.18l-24.19 12.04 33.74 -21.13c-21.5,-114.87 -61.32,-144.23 -148.95,-135.75 -83.94,8.11 -127.57,66.87 -154.89,143.66 15.84,-1.33 12.36,-0.16 21.13,-5.16z"/>
  <path class="fil0" d="M4904.62 1117.39c-12.4,-6.97 7.49,0.53 -9.84,-1.69 -11.53,-1.45 -2.09,1.53 -12.52,-1.28 -24.71,-6.65 -49.05,-36.98 15.02,-56.07 -19.83,-16.64 -31.77,-37.25 -73.93,-25.06 -96.92,28.04 -2.2,205.67 81.28,84.1z"/>
 </g>
</svg>
