<?xml version="1.0" encoding="UTF-8"?>
<!DOCTYPE svg PUBLIC "-//W3C//DTD SVG 1.1//EN" "http://www.w3.org/Graphics/SVG/1.1/DTD/svg11.dtd">
<!-- Creator: CorelDRAW 2020 (64-Bit) -->
<svg xmlns="http://www.w3.org/2000/svg" xml:space="preserve" width="23.3168mm" height="50.7973mm" version="1.1" style="shape-rendering:geometricPrecision; text-rendering:geometricPrecision; image-rendering:optimizeQuality; fill-rule:evenodd; clip-rule:evenodd"
viewBox="0 0 1496.95 3261.2"
 xmlns:xlink="http://www.w3.org/1999/xlink"
 xmlns:xodm="http://www.corel.com/coreldraw/odm/2003">
 <defs>
  <style type="text/css">
   <![CDATA[
    .fil1 {fill:#FEFEFE}
    .fil3 {fill:#ED3237}
    .fil0 {fill:black}
    .fil2 {fill:#ECC49B}
    .fil4 {fill:#F3E4DA}
   ]]>
  </style>
 </defs>
 <g id="Capa_x0020_1">
  <metadata id="CorelCorpID_0Corel-Layer"/>
  <g id="_2244218796624">
   <path class="fil0" d="M1236.42 1966.09c22.36,381.74 28.7,764.41 22.39,1146.74l-1.1 66.85 -113 7.47c-4.15,41.36 -55.78,74.06 -118.88,74.06 -54.11,0 -99.8,-24.06 -114.32,-57 -88.72,6.45 -177.77,10.56 -266.47,7.13 -19.73,-0.76 -39.28,-1.92 -58.71,-3.45 -16.2,31.05 -60.47,53.32 -112.56,53.32 -65.81,0 -119.15,-35.56 -119.15,-79.44 0,-3.47 0.33,-6.9 0.98,-10.26 -28.78,-6.72 -57.57,-14.2 -86.48,-22.42l-33.58 -9.54 -0.51 -34.91c-1.5,-102.54 -6.54,-205.23 -7.61,-307.58 -0.38,-36.33 -1.22,-79.18 14.53,-113.54l-8.83 3.78 0.2 -59.36c0.19,-56.6 -0.48,-113.22 -0.51,-169.82 -0.03,-43.03 0.12,-86.13 1.3,-129.15 0.84,-30.68 1.63,-64.83 6.53,-95.11l1.87 -11.6 3.99 -4.32 0.67 -100.29c1.13,-33.02 3.56,-66.29 6.54,-99.66l-1.05 -77.74c-6.36,-2.86 -12.54,-5.6 -18.61,-8.24 0.04,4.16 -0.06,8.37 -0.31,12.62 -4.42,75.71 -53.55,134.41 -109.75,131.14 -56.19,-3.28 -98.16,-67.31 -93.74,-143.01 1.21,-20.73 5.78,-40.18 12.92,-57.43 -13.58,-2.07 -27.88,-3.95 -43.16,-5.69 5.98,-86.32 9.32,-81.95 9.58,-138.86 1.48,-322.69 42.76,-815.42 361.22,-988.25 41.54,-358.13 -74.53,-765.81 403.89,-741.49 324.39,16.54 302.81,297.2 309.14,520.71 7.09,250.05 62.19,177.98 161.17,321.78 23.63,25.12 41.76,52.47 54.06,85.78l4.94 13.37 -1.12 3.09c20.67,43.12 42.72,96.3 66.16,162.9l-0.01 0c34.06,94.68 48.43,198.76 64.26,295.17 9.82,59.8 23.11,119.15 32.51,178.8 6.57,41.69 10.79,85.46 -5.64,125.53 -7.48,18.25 -19.07,34.41 -33.14,48.88 15.19,8.58 28.95,22.22 40.86,43.37l29.05 51.62 -58.19 16.82 5.06 24.81c0.53,2.4 1.03,4.82 1.48,7.27 16.1,86.04 -17.35,164.49 -74.7,175.22 -57.36,10.73 -116.91,-50.32 -133,-136.36 1.81,11.4 1.12,20.02 -1.17,26.28z"/>
   <path class="fil1" d="M1151.48 1476.37c87.78,110.17 62.22,223.65 83.36,402.61l192.18 -55.55c-26.69,-47.42 -52.09,-30.19 -145.19,-26.64 192.57,-100.11 149.18,-117.49 105.19,-385.36 -22.67,-138.09 -42.57,-298.34 -126.87,-411.3 -54.65,312.5 -220.65,735.39 -362.37,1002.16 -87.52,164.74 -158.49,278.74 -273.62,408.58 -406.39,458.38 -351.71,42.92 -342.23,693.09 276.65,78.62 457.63,68.22 739.93,44.3 0.24,-210.23 -35.84,-372.46 39.53,-440.92 0.87,161.86 6.3,323.71 64.64,428.06l-13.32 -1038.84c107.11,235.35 -8.38,974.54 99.19,1015.48 8.99,-544.95 -7.62,-1090.15 -60.42,-1635.68z"/>
   <path class="fil2" d="M929.6 847.64l6 -17.26 -84.57 -24.11 -0.13 -61.88c-24.81,-1.39 -66.85,27.27 -112.36,26.88 -49.65,-0.42 -73.94,-18.27 -111.99,-30.71l-0.86 68.75 -69.25 19.88c39.88,11.81 83.63,20.85 127.71,22.83 112.86,5.08 205.48,-0.95 245.45,-4.37z"/>
   <path class="fil2" d="M522.15 466.85c26.17,43.81 28.18,73.71 74.73,102.13 31.08,18.98 36.48,14.23 69.53,4.4 14.76,-4.38 41.94,10.13 72.36,10.37 29.49,0.24 61.66,-11.33 75.49,-10.21 33.08,2.66 33.18,19.47 78.93,-3.42 39.05,-19.53 55.27,-58.47 78.31,-104.11 0.3,36.89 -9.53,41.12 23.23,42.83 1.24,-41.87 -21.74,-89.3 -41.61,-131.52 -32.61,-69.26 -26.9,-88.77 -41,-155.68 -21.03,-99.88 -135.41,-53.75 -185.58,-63.39 -184.36,-35.43 -134.31,116.5 -180.85,200.53 -23.28,42.03 -50.16,92.47 -50.82,149.22 39.61,5.78 25.73,-10.78 27.29,-41.15z"/>
   <path class="fil2" d="M733.49 639.06l21.74 0.3c0.98,1.14 12.2,80.32 60,32.61 21.65,-21.62 17.4,-61.24 7.32,-88.98 -26.89,-0.75 -44.12,9.98 -78.22,9.66 -15.61,-0.14 -63.56,-9.91 -67.87,-8.29 -20.06,7.51 -28.15,81.11 12.31,96.44 38.24,14.46 36.55,-16.99 44.73,-41.74z"/>
   <path class="fil1" d="M541.24 1798.41c155.26,-226.13 319.33,-632.17 396.29,-918.16 -251.13,27.12 -342.65,9.15 -565.85,-99.16 -260.49,141.4 -326.14,587.66 -327.8,949.86 45.74,13.82 110.58,24.79 149.94,83.9 -23.57,-5.22 -93.84,-42.49 -154.12,-21.85l-3.21 46.28c71.02,8.08 134.08,26 197.54,54.84l33.09 -414.43c87.3,121.02 20.2,467.23 14.32,639.17l0 0.01c1.28,-0.91 2.6,-1.89 3.94,-2.9 11.97,-8.8 25.1,-20.76 39.23,-35.7 70.99,-72.55 170.52,-206.83 216.64,-281.85z"/>
   <path class="fil3" d="M279.15 2240.11c-10.64,65.79 -6.45,277.76 -6.81,387.97 252.33,-107.97 461.15,-421.98 606.21,-706.33 72.32,-141.76 144.46,-316.87 203.57,-479.58l180.34 -499.35c-11.73,-31.77 -29.79,-57.94 -58.28,-85.01 -132.92,396.77 -223.46,872.82 -457.86,1165.21 125.19,-353.22 222.55,-476.26 383.61,-994.91 62.29,-200.58 104.49,-216.7 -88.01,-255.98 -60.75,75.26 -136.8,345.91 -228.21,593.42 -105.92,286.76 -325.37,647.92 -534.55,874.54z"/>
  </g>
  <path class="fil0" d="M777.89 307.44c24.52,4.52 47.39,14.14 65.97,24.56 22.71,12.74 36.7,26.63 50.85,41.31 11.11,-11.83 16.02,-38.1 5.84,-52.79 -13.15,-18.98 -37.85,-38.4 -62.13,-44.8 -7.92,-2.09 -6.89,-1.57 -14.41,-1.51 -15.23,0.13 1.87,0.39 -8.92,-1.64 -16.03,-3.01 -33.8,20.79 -37.19,34.87z"/>
  <path class="fil0" d="M585.8 368.33c16.65,-11.34 10.38,-14.53 51.06,-34.01 21.16,-10.14 43.39,-15.82 68.78,-19.25 1.83,-14.55 -14.25,-38.53 -29.58,-39.8 -17.3,-1.43 -34.94,1.91 -50.83,9.36 -13.55,6.35 -32.6,21.66 -38.8,30.25 -9.27,12.84 -11.07,39.66 -0.62,53.45z"/>
  <path class="fil4" d="M857.04 419.93c-6.98,32.24 -45.45,23.77 -47.38,-1.32 -2.2,-28.69 35.31,-31.96 44.54,-13.03 -20.67,-7.38 -19.93,26.87 2.84,14.36zm-31.04 -32.04c-8.83,2.5 -12.31,-1.85 -22.46,17.5 -11.02,21.02 -17.99,33.88 12.83,46.07 10.3,4.08 23.32,3.58 33.75,0.17 8.71,-2.84 21.01,-8.83 26.74,-13.28 15.8,-12.28 -2.68,-51.18 -34.46,-53 -15.41,-0.88 -16.24,2.49 -16.41,2.54z"/>
  <path class="fil4" d="M675.78 425.96c-13.14,23.36 -44.21,17.27 -45.97,-7.6 -1.96,-27.46 25.63,-30.98 44.27,-16.78 -0.53,0.37 -1.35,0.65 -1.77,0.83l-12.62 6.08c-1.26,15.91 5.52,14.65 11.04,16.2l5.05 1.26zm19.45 7.13c-11.26,-20.8 -11.92,-42.46 -32.65,-46.71 -27.46,-5.63 -42.51,3.37 -53.13,24.4 -5.51,10.89 -10.07,18.37 0.33,26.82 6.33,5.15 20.72,11.56 27.74,13.66 35.79,10.72 49.72,-13.93 57.71,-18.17z"/>
  <path class="fil0" d="M857.04 419.93c-22.77,12.51 -23.52,-21.73 -2.84,-14.36 -9.23,-18.93 -46.74,-15.66 -44.54,13.03 1.93,25.1 40.39,33.56 47.38,1.32z"/>
  <path class="fil0" d="M675.78 425.96l-5.05 -1.26c-5.51,-1.55 -12.29,-0.3 -11.04,-16.2l12.62 -6.08c0.41,-0.19 1.23,-0.46 1.77,-0.83 -18.64,-14.21 -46.23,-10.68 -44.27,16.78 1.77,24.87 32.83,30.96 45.97,7.6z"/>
 </g>
</svg>
