<?xml version="1.0" encoding="UTF-8"?>
<!DOCTYPE svg PUBLIC "-//W3C//DTD SVG 1.1//EN" "http://www.w3.org/Graphics/SVG/1.1/DTD/svg11.dtd">
<!-- Creator: CorelDRAW 2020 (64-Bit) -->
<svg xmlns="http://www.w3.org/2000/svg" xml:space="preserve" width="28.2843mm" height="55.5285mm" version="1.1" style="shape-rendering:geometricPrecision; text-rendering:geometricPrecision; image-rendering:optimizeQuality; fill-rule:evenodd; clip-rule:evenodd"
viewBox="0 0 394.23 773.97"
 xmlns:xlink="http://www.w3.org/1999/xlink"
 xmlns:xodm="http://www.corel.com/coreldraw/odm/2003">
 <defs>
  <style type="text/css">
   <![CDATA[
    .fil1 {fill:#FEFEFE}
    .fil3 {fill:#ED3237}
    .fil0 {fill:black}
    .fil2 {fill:#ECC49B}
    .fil5 {fill:#ECE3DA}
    .fil4 {fill:#EDE1D5}
   ]]>
  </style>
 </defs>
 <g id="Capa_x0020_1">
  <metadata id="CorelCorpID_0Corel-Layer"/>
  <g id="_2246232776624">
   <path class="fil0" d="M337.67 492.79c4.85,82.88 6.23,165.96 4.86,248.96l-0.24 14.51 -24.53 1.62c-0.9,8.98 -12.11,16.08 -25.81,16.08 -11.75,0 -21.67,-5.22 -24.82,-12.37 -19.26,1.4 -38.59,2.29 -57.85,1.55 -4.28,-0.17 -8.53,-0.42 -12.75,-0.75 -3.52,6.74 -13.13,11.58 -24.44,11.58 -14.29,0 -25.87,-7.72 -25.87,-17.25 0,-0.75 0.07,-1.5 0.21,-2.23 -6.25,-1.46 -12.5,-3.08 -18.78,-4.87l-7.29 -2.07 -0.11 -7.58c-0.32,-22.26 -1.42,-44.56 -1.65,-66.78 -0.08,-7.89 -0.26,-17.19 3.16,-24.65l-1.92 0.82 0.04 -12.89c0.04,-12.29 -0.1,-24.58 -0.11,-36.87 -0.01,-9.34 0.03,-18.7 0.28,-28.04 0.18,-6.66 0.35,-14.07 1.42,-20.65l0.41 -2.52 1.73 -1.87 1.25 -1.37 -2.55 -189.41 -1.19 -0.84c-77.11,-54.52 -105.76,-154.23 -115.75,-243.54 -0.94,-8.39 -2.81,-16.35 -4.26,-24.61 -1.39,-7.92 -2.24,-16.33 2.1,-23.56 2.86,-4.77 7.14,-7.67 11.98,-9.44l-2.83 -13.88c-0.11,-0.52 -0.22,-1.05 -0.32,-1.58 -3.5,-18.68 3.77,-35.71 16.22,-38.04 12.45,-2.33 25.38,10.92 28.88,29.6 -2.05,-12.94 10.66,-9.41 11.27,-2.03 0.38,4.53 -2.23,15.2 -4.29,22.76 5.18,0.55 10.11,2.02 14.1,5.79 6.73,6.36 7.32,16.46 8.11,25.13 1.31,14.45 2.87,28.16 5.6,42.46 5.43,28.42 18.17,66.09 39.03,87.3 5.18,3.13 10.07,6.04 14.73,8.74 2.12,0.14 4.29,0.3 6.53,0.42 9.02,-77.75 -18.67,-159.54 85.2,-154.26 70.43,3.59 65.74,64.52 67.12,113.05 1.54,54.29 13.5,38.64 34.99,69.86 5.13,5.45 9.07,11.39 11.74,18.62l1.07 2.9 -0.24 0.67c4.49,9.36 9.27,20.91 14.36,35.37l-0 0c7.4,20.55 10.52,43.15 13.95,64.08 2.13,12.98 5.02,25.87 7.06,38.82 1.43,9.05 2.34,18.55 -1.22,27.25 -1.62,3.96 -4.14,7.47 -7.19,10.61 3.3,1.86 6.29,4.82 8.87,9.42l6.31 11.21 -12.63 3.65 1.1 5.39c0.11,0.52 0.22,1.05 0.32,1.58 3.5,18.68 -3.77,35.71 -16.22,38.04 -12.45,2.33 -25.38,-10.92 -28.88,-29.6 0.39,2.48 0.24,4.35 -0.26,5.7z"/>
   <path class="fil1" d="M319.23 386.47c19.06,23.92 13.51,48.56 18.1,87.41l41.72 -12.06c-5.79,-10.29 -11.31,-6.55 -31.52,-5.78 41.81,-21.74 32.39,-25.51 22.84,-83.66 -4.92,-29.98 -9.24,-64.77 -27.54,-89.3 -11.86,67.85 -47.9,159.66 -78.67,217.57 -19,35.77 -34.41,60.52 -59.4,88.7 -88.23,99.52 -76.36,9.32 -74.3,150.47 60.06,17.07 99.35,14.81 160.64,9.62 0.05,-45.64 -7.78,-80.86 8.58,-95.73 0.19,35.14 1.37,70.28 14.03,92.93l-2.89 -225.54c23.25,51.1 -1.82,211.58 21.53,220.47 1.95,-118.31 -1.65,-236.68 -13.12,-355.12z"/>
   <path class="fil2" d="M273.85 249.97l1.3 -3.75 -18.36 -5.24 -0.03 -13.43c-5.39,-0.3 -14.51,5.92 -24.39,5.84 -10.78,-0.09 -16.05,-3.97 -24.31,-6.67l-0.19 14.93 -15.03 4.32c8.66,2.56 18.16,4.53 27.73,4.96 24.5,1.1 44.61,-0.21 53.29,-0.95z"/>
   <path class="fil2" d="M182.6 167.3c5.68,9.51 6.12,16 16.22,22.17 6.75,4.12 7.92,3.09 15.1,0.96 3.2,-0.95 9.11,2.2 15.71,2.25 6.4,0.05 13.39,-2.46 16.39,-2.22 7.18,0.58 7.2,4.23 17.14,-0.74 8.48,-4.24 12,-12.69 17,-22.6 0.07,8.01 -2.07,8.93 5.04,9.3 0.27,-9.09 -4.72,-19.39 -9.03,-28.55 -7.08,-15.04 -5.84,-19.27 -8.9,-33.8 -4.57,-21.68 -29.4,-11.67 -40.29,-13.76 -40.03,-7.69 -29.16,25.29 -39.26,43.54 -5.05,9.12 -10.89,20.08 -11.03,32.4 8.6,1.26 5.59,-2.34 5.93,-8.93z"/>
   <path class="fil2" d="M228.48 204.69l4.72 0.07c0.21,0.25 2.65,17.44 13.03,7.08 4.7,-4.69 3.78,-13.3 1.59,-19.32 -5.84,-0.16 -9.58,2.17 -16.98,2.1 -3.39,-0.03 -13.8,-2.15 -14.73,-1.8 -4.36,1.63 -6.11,17.61 2.67,20.94 8.3,3.14 7.94,-3.69 9.71,-9.06z"/>
   <path class="fil1" d="M186.74 456.39c33.71,-49.09 69.33,-137.25 86.04,-199.34 -72.33,7.81 -97.16,-5.49 -148.87,-36.78 -20.34,-19.98 -35.9,-56.35 -43.13,-94.17 -10.34,-54.14 -0.51,-63.83 -21.26,-64.42 -6.9,-0.2 -17.18,0.61 -32.71,1.12 -24.4,2.61 -13.41,18 -10.13,47.32 12.22,109.29 47.99,190.96 111.02,235.52 1.7,-13.14 1.78,-13.31 5.52,-24.7l2.73 203.22c14.31,-10.15 38.5,-47.78 50.8,-67.78z"/>
   <path class="fil3" d="M129.84 552.28c-2.31,14.28 -1.4,60.3 -1.48,84.23 54.78,-23.44 100.12,-91.61 131.61,-153.35 15.7,-30.78 31.36,-68.79 44.2,-104.12l39.15 -108.41c-2.55,-6.9 -6.47,-12.58 -12.65,-18.46 -28.86,86.14 -48.51,189.49 -99.4,252.97 27.18,-76.69 48.32,-103.4 83.28,-216 13.52,-43.55 22.69,-47.05 -19.11,-55.57 -13.19,16.34 -29.7,75.1 -49.55,128.84 -23,62.26 -70.64,140.67 -116.05,189.87z"/>
  </g>
  <path class="fil0" d="M195.73 143.05c13.58,-3.8 15.93,-3.16 29.41,-0.59 0.3,-4.47 0.08,-10.32 -3.74,-10.77 -1.19,-0.14 -2.01,-3.01 -9.87,-2.66 -4,0.17 -8.58,1.38 -11.42,3.27 -3.26,2.16 -3.6,5.75 -4.38,10.75z"/>
  <path class="fil0" d="M237.9 141.08c22.53,-2.07 22.85,3.13 29.31,4.05 0.05,-5.37 0.31,-8.42 -3.07,-11.03 -2.51,-1.94 -6.52,-3.61 -10.17,-4.31 -5.85,-1.11 -6.88,-0.03 -10.26,0.77 -4.4,1.04 -6.36,6.07 -5.8,10.51z"/>
  <path class="fil4" d="M199.72 157c2.43,1.24 6.86,2.39 9.07,2.69 5.59,0.75 6.61,-0.84 10.49,-1.24l1.9 -0.95c-1.04,-5.87 -2.72,-9.51 -7.9,-9.76l1.79 1.32c1.19,0.91 0.66,0.26 1.44,1.49 -1.13,0.19 -1.83,0.22 -2.91,0.83l-0.13 2.91c1.49,0.65 2.47,1.07 3.48,0.18 -0.72,3.6 -5.32,5.33 -8.18,2.4 -3.26,-3.34 -0.94,-6.35 1.83,-8.52l0.71 -0.57c-3.03,0.14 -6.15,1.01 -7.64,2.58 -1.11,1.16 -3.34,4.7 -3.96,6.64z"/>
  <path class="fil5" d="M256.39 155.11c-6.56,9.55 -14,-4.4 -6.39,-6.61 3.31,-0.96 4.25,0.66 5.81,1.97 -5.03,1.5 -3.12,3.88 -1.18,4.41 0.82,0.22 0.08,-0.01 0.98,0.1 1.36,0.17 -0.2,-0.42 0.77,0.13zm-14.3 1.06c1.71,2.87 -2.25,-1.32 1.49,1.52 0.81,0.62 1.23,0.83 2.31,1.24 6.29,2.35 11.18,-0.17 17.1,-1.94 -3.6,-4.55 -3.15,-7.85 -10.37,-8.95 -2.9,-0.44 -6.1,-0.45 -7.53,1.73 -0.83,1.26 -2.44,6.15 -3,6.4z"/>
  <path class="fil0" d="M199.72 157c0.61,-1.93 2.85,-5.47 3.96,-6.64 1.49,-1.58 4.61,-2.44 7.64,-2.58l-0.71 0.57c-2.78,2.16 -5.09,5.18 -1.83,8.52 2.86,2.93 7.47,1.2 8.18,-2.4 -1.01,0.89 -1.99,0.47 -3.48,-0.18l0.13 -2.91c1.08,-0.61 1.78,-0.64 2.91,-0.83 -0.78,-1.23 -0.25,-0.58 -1.44,-1.49l-1.79 -1.32c5.18,0.24 6.86,3.89 7.9,9.76l-1.9 0.95 2.65 -1.66c-1.69,-9.03 -4.82,-11.33 -11.7,-10.67 -6.6,0.64 -10.02,5.25 -12.17,11.29 1.24,-0.1 0.97,-0.01 1.66,-0.41z"/>
  <path class="fil0" d="M256.39 155.11c-0.97,-0.55 0.59,0.04 -0.77,-0.13 -0.91,-0.11 -0.16,0.12 -0.98,-0.1 -1.94,-0.52 -3.85,-2.91 1.18,-4.41 -1.56,-1.31 -2.5,-2.93 -5.81,-1.97 -7.62,2.2 -0.17,16.16 6.39,6.61z"/>
 </g>
</svg>
