<?xml version="1.0" encoding="UTF-8"?>
<!DOCTYPE svg PUBLIC "-//W3C//DTD SVG 1.1//EN" "http://www.w3.org/Graphics/SVG/1.1/DTD/svg11.dtd">
<!-- Creator: CorelDRAW 2020 (64-Bit) -->
<svg xmlns="http://www.w3.org/2000/svg" xml:space="preserve" width="27.5097mm" height="50.7969mm" version="1.1" style="shape-rendering:geometricPrecision; text-rendering:geometricPrecision; image-rendering:optimizeQuality; fill-rule:evenodd; clip-rule:evenodd"
viewBox="0 0 402.98 744.11"
 xmlns:xlink="http://www.w3.org/1999/xlink"
 xmlns:xodm="http://www.corel.com/coreldraw/odm/2003">
 <defs>
  <style type="text/css">
   <![CDATA[
    .fil1 {fill:#FEFEFE}
    .fil2 {fill:#ED3237}
    .fil0 {fill:black}
    .fil3 {fill:#ECC49B}
    .fil5 {fill:#ECE3DA}
    .fil4 {fill:#EDE1D5}
   ]]>
  </style>
 </defs>
 <g id="Capa_x0020_1">
  <metadata id="CorelCorpID_0Corel-Layer"/>
  <g id="_2244162564160">
   <path class="fil0" d="M343.53 448.6c5.1,87.1 6.55,174.42 5.11,261.65l-0.25 15.25 -25.78 1.71c-0.95,9.44 -12.73,16.9 -27.12,16.9 -12.35,0 -22.77,-5.49 -26.08,-13.01 -20.24,1.47 -40.56,2.41 -60.8,1.63 -4.5,-0.17 -8.96,-0.44 -13.4,-0.79 -3.7,7.08 -13.8,12.17 -25.68,12.17 -15.01,0 -27.19,-8.11 -27.19,-18.12 0,-0.79 0.08,-1.57 0.22,-2.34 -6.57,-1.53 -13.14,-3.24 -19.73,-5.12l-7.66 -2.18 -0.12 -7.96c-0.34,-23.4 -1.49,-46.83 -1.74,-70.18 -0.09,-8.29 -0.28,-18.07 3.32,-25.91l-2.02 0.86 0.05 -13.54c0.04,-12.91 -0.11,-25.83 -0.12,-38.75 -0.01,-9.82 0.03,-19.65 0.3,-29.47 0.19,-7 0.37,-14.79 1.49,-21.7l0.43 -2.65 1.82 -1.97 1.32 -1.44 -1.82 -135.45 -1.63 -44.81c-8.9,8.19 -19.87,13.57 -32.81,12.72 -35.83,-2.36 -60.45,-49.45 -65.32,-81.18 -6.38,-41.55 -10.37,-83.4 -16.61,-124.96l-1.69 -11.24 10.42 -2.66c-0.47,-2.55 -0.72,-5.21 -0.72,-7.95 0,-14.66 7.12,-27.05 16.92,-31.12l-0 0c0,0 4.5,-7.55 2.94,-13.38 -1.55,-5.84 -5.69,-21.75 4.02,-24.35 6.52,11.11 13.59,34.51 16.73,45.6 3.77,5.02 6.33,11.72 7.01,19.22l7.93 -2.03 4.79 8.17c2.74,4.67 4.15,9.79 2.99,15.06 1.61,0.72 3.15,1.67 4.59,2.94 6.09,5.36 6.86,13.19 7.64,20.72 1.11,10.78 5.07,32.04 10.44,49.51 3.13,-8.55 6.75,-17.04 13.77,-23.19 10.53,-9.22 24.71,-9.41 38.25,-6.69 8.34,-80.92 -17.16,-173.8 90.45,-168.33 74.02,3.77 69.09,67.81 70.54,118.81 1.62,57.06 14.19,40.61 36.77,73.42 5.39,5.73 9.53,11.97 12.34,19.57l1.13 3.05 -0.25 0.71c4.72,9.84 9.75,21.97 15.1,37.17l-0 0c7.77,21.6 11.05,45.35 14.66,67.35 2.24,13.64 5.27,27.19 7.42,40.8 1.5,9.51 2.46,19.5 -1.29,28.64 -1.71,4.16 -4.35,7.85 -7.56,11.15 3.47,1.96 6.61,5.07 9.32,9.9l6.63 11.78 -13.28 3.84 1.15 5.66c0.12,0.55 0.23,1.1 0.34,1.66 3.67,19.63 -3.96,37.53 -17.05,39.98 -13.09,2.45 -26.68,-11.48 -30.35,-31.11 0.41,2.6 0.26,4.57 -0.27,6z"/>
   <path class="fil1" d="M324.15 336.86c20.03,25.14 14.2,51.03 19.02,91.86l43.85 -12.68c-6.09,-10.82 -11.89,-6.89 -33.13,-6.08 43.94,-22.84 34.04,-26.81 24,-87.93 -5.17,-31.51 -9.71,-68.07 -28.95,-93.85 -12.47,71.3 -50.35,167.79 -82.68,228.66 -19.97,37.59 -36.16,63.6 -62.43,93.23 -92.73,104.59 -80.25,9.79 -78.09,158.14 63.12,17.94 104.42,15.57 168.83,10.11 0.06,-47.97 -8.18,-84.98 9.02,-100.6 0.2,36.93 1.44,73.86 14.75,97.67l-3.04 -237.03c24.44,53.7 -1.91,222.36 22.63,231.7 2.05,-124.34 -1.74,-248.74 -13.79,-373.22z"/>
   <path class="fil1" d="M184.92 410.34c35.43,-51.6 72.86,-144.24 90.42,-209.5 -7.89,0.85 -15.24,1.46 -22.14,1.84l0 -0 -0.01 0c-18.04,0.99 -33,0.37 -46.44,-1.8l-0.35 0.3c-15.75,-3.77 -28.91,-10.19 -42.93,-15.06 -58.62,-20.38 -48.76,10.56 -67.21,43.8 -11.84,-15.12 -21.35,-58.99 -23.49,-79.71 -1.78,-17.29 -2.58,-14.69 -29.86,-13.43 12.39,-9.72 21.96,-10.58 16.3,-20.22l-45.07 11.52c6.2,41.29 10.1,82.51 16.61,124.92 6.99,45.51 51.83,102.19 87.12,49.25l9.85 -14.78 1.92 52.57 1.9 141.52c15.04,-10.67 40.46,-50.21 53.39,-71.24z"/>
   <path class="fil2" d="M125.11 511.12c-2.43,15.01 -1.47,63.38 -1.55,88.52 57.58,-24.63 105.22,-96.28 138.32,-161.16 16.5,-32.35 32.96,-72.3 46.45,-109.43l41.15 -113.94c-2.68,-7.25 -6.8,-13.22 -13.3,-19.4 -30.33,90.53 -50.99,199.15 -104.47,265.87 28.56,-80.59 50.78,-108.67 87.53,-227.01 14.21,-45.77 23.84,-49.45 -20.08,-58.41 -13.86,17.17 -31.21,78.93 -52.07,135.4 -24.17,65.43 -74.24,147.84 -121.97,199.55z"/>
   <path class="fil3" d="M275.27 191.53l1.37 -3.94 -19.3 -5.5 -0.03 -14.12c-5.66,-0.32 -15.25,6.22 -25.64,6.13 -11.33,-0.1 -16.87,-4.17 -25.55,-7.01l-0.2 15.69 -15.8 4.54c9.1,2.69 19.08,4.76 29.14,5.21 25.75,1.16 46.88,-0.22 56,-1z"/>
   <path class="fil3" d="M177.91 104.65c5.97,10 6.43,16.82 17.05,23.3 7.09,4.33 8.32,3.25 15.86,1 3.37,-1 9.57,2.31 16.51,2.37 6.73,0.05 14.07,-2.59 17.22,-2.33 7.55,0.61 7.57,4.44 18.01,-0.78 8.91,-4.46 12.61,-13.34 17.87,-23.75 0.07,8.42 -2.17,9.38 5.3,9.77 0.28,-9.55 -4.96,-20.37 -9.5,-30.01 -7.44,-15.8 -6.14,-20.25 -9.36,-35.52 -4.8,-22.79 -30.9,-12.26 -42.34,-14.46 -42.07,-8.08 -30.64,26.58 -41.26,45.76 -5.31,9.59 -11.44,21.1 -11.6,34.05 9.04,1.32 5.87,-2.46 6.23,-9.39z"/>
   <path class="fil3" d="M226.13 143.94l4.96 0.07c0.22,0.26 2.78,18.33 13.69,7.44 4.94,-4.93 3.97,-13.97 1.67,-20.3 -6.14,-0.17 -10.07,2.28 -17.85,2.2 -3.56,-0.03 -14.5,-2.26 -15.49,-1.89 -4.58,1.71 -6.42,18.51 2.81,22 8.73,3.3 8.34,-3.88 10.21,-9.52z"/>
  </g>
  <path class="fil0" d="M189.81 79.35c5.31,-1.54 9.49,-2.75 15.48,-2.9 6.95,-0.18 10.23,1.37 16.24,2.25 1.01,-12.05 -3.27,-10.74 -4.98,-12.03 -1.2,-0.9 -0.65,-0.85 -2.42,-1.49 -5.89,-2.12 -14.33,-0.38 -19.47,2.62 -3.68,2.16 -4.01,6.05 -4.85,11.55z"/>
  <path class="fil0" d="M235.16 77.07c16.57,-0.81 16.92,-0.56 31.53,4.38 -0.13,-5.87 0.45,-9.05 -3.51,-11.74 -5.55,-3.77 -13.98,-6.02 -21.03,-3.6l-1.01 0.28c-0.06,0.01 -1.04,0.14 -1.36,0.27 -2.86,1.14 -5.1,6.2 -4.63,10.42z"/>
  <path class="fil4" d="M254.8 92.97c-1.15,1.53 -2.42,3.54 -5.7,2.98 -5.25,-0.9 -5.77,-7.97 -1.55,-9.89 3.19,-1.45 5.1,0.25 6.78,1.4l-2.59 1.67c-0.95,1.36 -0.53,1.42 -0.3,2.95 1.41,0.42 2.46,0.23 3.36,0.89zm-15.04 1.12c6.15,6.99 18.64,1.32 22.22,0.56 -1.15,-2.21 -2.58,-4.3 -4.31,-6.04 -4.09,-4.12 -14.49,-7.5 -17.91,5.48z"/>
  <path class="fil5" d="M209.07 92.03c1.84,0.6 1.77,1 3.68,0.08 -5.79,10.29 -14.89,-1.71 -8,-5.82 3.01,-1.8 5.37,-0.16 7.18,1.11 -0.1,0.08 -0.29,0.04 -0.35,0.21 -0.27,0.85 -0.8,-0.02 -2.05,1.23 -1.26,1.27 -0.73,1.42 -0.46,3.19zm-14.92 2.62c2.47,1.33 8.11,2.77 11.22,2.86 5.38,0.16 7.94,-0.81 11.21,-2.9 -0.43,-2.27 -2.02,-5.36 -2.91,-6.79 -1.83,-2.92 -3.65,-2.23 -7.8,-2.15 -7.73,0.15 -8.26,5.08 -11.72,8.98z"/>
  <path class="fil0" d="M254.8 92.97c-0.9,-0.66 -1.95,-0.47 -3.36,-0.89 -0.23,-1.53 -0.65,-1.59 0.3,-2.95l2.59 -1.67c-1.68,-1.15 -3.59,-2.85 -6.78,-1.4 -4.22,1.92 -3.7,8.99 1.55,9.89 3.28,0.57 4.55,-1.45 5.7,-2.98z"/>
  <path class="fil0" d="M209.07 92.03c-0.27,-1.78 -0.79,-1.92 0.46,-3.19 1.24,-1.25 1.78,-0.38 2.05,-1.23 0.05,-0.16 0.24,-0.12 0.35,-0.21 -1.81,-1.27 -4.17,-2.9 -7.18,-1.11 -6.89,4.11 2.21,16.11 8,5.82 -1.91,0.92 -1.84,0.52 -3.68,-0.08z"/>
 </g>
</svg>
