<?xml version="1.0" encoding="UTF-8"?>
<!DOCTYPE svg PUBLIC "-//W3C//DTD SVG 1.1//EN" "http://www.w3.org/Graphics/SVG/1.1/DTD/svg11.dtd">
<!-- Creator: CorelDRAW 2020 (64-Bit) -->
<svg xmlns="http://www.w3.org/2000/svg" xml:space="preserve" width="26.725mm" height="55.486mm" version="1.1" style="shape-rendering:geometricPrecision; text-rendering:geometricPrecision; image-rendering:optimizeQuality; fill-rule:evenodd; clip-rule:evenodd"
viewBox="0 0 2251.93 4675.41"
 xmlns:xlink="http://www.w3.org/1999/xlink"
 xmlns:xodm="http://www.corel.com/coreldraw/odm/2003">
 <defs>
  <style type="text/css">
   <![CDATA[
    .fil1 {fill:#FEFEFE}
    .fil2 {fill:#ED3237}
    .fil0 {fill:black}
    .fil4 {fill:#8E542F}
    .fil3 {fill:#ECC49B}
   ]]>
  </style>
 </defs>
 <g id="Capa_x0020_1">
  <metadata id="CorelCorpID_0Corel-Layer"/>
  <g id="_2244155269456">
   <path class="fil0" d="M1421.62 1019.54c-177.39,-315.82 -203.49,-880.51 -658.27,-723.62 -572,197.31 -362.63,474.27 -254.74,991.96 -138.12,113.28 -239.54,276.43 -309.57,439.51 -153.9,358.45 -100.36,736.46 -89.76,1110.27 35.74,4.02 67.56,6.54 97.5,6.97 -1.4,9.4 -2.14,19.09 -2.14,28.99 0,87.79 57.49,158.95 128.41,158.95 38.42,0 72.9,-20.88 96.42,-53.98 -14.27,260.59 -26.56,501.04 -90.3,762.52 -54.76,224.66 -228.18,437.06 -339.18,645.13 89.02,54.49 208.3,94.32 344.55,123.05 -4.72,53.35 50.47,108.22 128.66,125.53 82.7,18.3 159.81,-12.34 172.23,-68.43 0.9,-4.06 1.42,-8.15 1.61,-12.23 171.37,16.89 352.47,23.03 524.81,23.41 4.71,54.59 71.44,97.87 153.09,97.87 84.01,0 152.23,-45.82 153.34,-102.62 124.28,-3.91 235.44,-9.53 323.76,-14.27 73.9,-506.94 94.13,-945.58 67.28,-1454.9 -14.35,-272.4 -39.01,-546.71 -78.59,-816.64 -16.8,-114.61 -36.45,-229.29 -61.39,-342.44 -15.03,-68.85 -22.93,-110.75 -42.22,-168.08 -43.35,-118.1 -46.25,-251.19 54.85,-311.72 154.36,-115.6 255.07,-213.99 350.37,-388.5 143.16,-262.16 176.7,-538.02 152.27,-828.55 -20.8,4.9 -45.93,9.92 -73.59,14.69l4.33 -21.24c0.69,-3.15 1.35,-6.33 1.95,-9.54 21.13,-112.93 -22.77,-215.89 -98.05,-229.98 -75.28,-14.09 -153.44,66.05 -174.57,178.97 12.42,-78.24 -64.44,-56.88 -68.15,-12.29 -1.99,23.91 9.75,76.05 21.06,119.29 -5.55,-0.38 -10.9,-0.84 -15.99,-1.4l-62.5 -6.87c-1.36,98.03 -2.43,195.81 -9.95,293.65 -18.71,272.52 -136.33,291.16 -347.55,446.58z"/>
   <path class="fil1" d="M564.75 2545.42c202.6,-76.43 602.35,-815.52 691.81,-1131.53 -359.42,89 -474.91,41.83 -766.52,-40.53 -284.99,356.03 -369.99,604.64 -333.18,1233.58l239.91 -82.8c-36.4,90.35 -192.06,85.54 -239.41,140.85 -1.65,26.86 5.93,61.99 7.62,121.43 122.99,13.84 234.11,-31.34 321.2,-76.48 7.57,-203 -64.34,-572.21 31.57,-713.95l46.99 549.43z"/>
   <path class="fil2" d="M1317.65 2035.72c79.65,-248.57 248.69,-614.88 293.41,-1084.7l-175.28 129.51c-42.12,88.35 -232.72,680.19 -341.37,885.34 -220.77,416.9 -429,536.49 -594.7,796.54l-36.75 554.21c388.49,-182.61 1035.91,-1141.96 1104.74,-1801.86 -73.49,193.7 -124.39,359.58 -250.04,520.96z"/>
   <path class="fil1" d="M1835.37 342.97c-7.09,510.06 -65.65,451.91 -120.46,563.56 -20.47,97.25 -40.46,259.75 -57.05,549.21 293.65,-175.81 552.11,-547.03 537.64,-1086.59 -86.5,29.39 -178.06,48.69 -274.48,58.24 104.87,-37.51 146.77,-51.95 238.25,-107.38 -106.81,25.19 -214.62,34.97 -323.9,22.96z"/>
   <path class="fil1" d="M1712.22 3105.71c80.6,357.25 19.2,1144.91 -35.28,1402.3l75.33 -4.04c28.22,-193.55 68.59,-492.37 72.57,-825.04 8.59,-717.7 -85.42,-1604.85 -223.31,-1980.6 -151.63,561.38 -607.75,1388.11 -1141.9,1715.89 -68.99,320.85 -35.47,389.22 -234.8,706.81 -50.17,79.94 -101.15,154.7 -149.09,244.58 355.47,217.66 1075.86,163.36 1485.76,139.06 166.66,-390.55 129.02,-979.83 150.72,-1398.96z"/>
   <path class="fil3" d="M1271.29 1353.91l12.76 -32.03 -122.95 -14.4 -12.52 -80.24c-32.47,3.15 -81.27,48.72 -140.4,57.3 -64.49,9.35 -99.57,-8.95 -151.41,-17.48l12.61 89.35 -85.86 39.6c97.8,13.3 154.93,15.16 250.28,3.13 93.14,-11.75 198.34,-35.73 237.5,-45.22z"/>
   <path class="fil3" d="M629.84 1028.53c52.84,41.15 69.53,76.77 139.99,89.39 47.04,8.43 51.39,0.06 87.15,-27.68 15.97,-12.38 56.12,-7.55 93.45,-21.72 36.18,-13.73 70.04,-43.18 87.48,-48.4 41.73,-12.48 49.85,8.04 94.94,-41.73 38.48,-42.46 39.81,-97.8 46.28,-164.59 17.91,44.98 7.9,54.83 48.79,41.34 -18.39,-51.81 -69.06,-98.9 -113.45,-141.1 -72.84,-69.21 -75.13,-95.8 -124.2,-170.94 -73.23,-112.17 -191.21,-1.35 -257.17,10.72 -242.38,44.33 -108.9,206.39 -125.86,331.31 -8.49,62.48 -17.38,136.97 8.8,206.71 51.2,-11.76 26.35,-25.42 13.82,-63.32z"/>
   <path class="fil3" d="M969.18 1163.51l27.21 -8.62c1.69,1.02 48.43,95 88.21,15.79 18.03,-35.89 -3.67,-83.48 -27.7,-113.86 -33.81,10.2 -50.83,30.69 -93.43,44.41 -19.51,6.29 -83.27,13.96 -87.96,17.76 -21.88,17.64 -1.5,112.68 55.23,115.02 53.62,2.18 38.49,-36.28 38.43,-70.5z"/>
  </g>
  <path class="fil0" d="M855.54 671.1c7.63,2.98 43.02,-4.14 84.69,4.42 33.67,6.91 29.95,7.81 60.03,18.77l13.71 6.19c6.61,2.57 -1.08,0.94 7.32,2.21 -5.27,-23.43 1.47,-46.5 -21.6,-65.05 -15.22,-12.23 -38.88,-21.96 -55.2,-25.67 -16.29,-3.71 -30.16,-6.15 -46.61,-2.06l-20.46 5.79c-17.47,7.53 -23.33,38.1 -21.89,55.4z"/>
  <path class="fil0" d="M677.9 860.32c9.62,-11.31 11.03,-27.23 42.48,-63.14 18.59,-21.22 42,-39.09 69.53,-52.08 -7.93,-18.41 -33.44,-45.91 -54.33,-34.78 -12.19,6.5 -21.2,-4.14 -51.29,30.33 -45.94,52.63 -31.02,78.91 -6.38,119.67z"/>
  <path class="fil4" d="M715.59 920.96c15.41,-13.47 63.29,-72.85 102.54,-57.48 6.09,2.38 -0.68,0.81 6.17,2.69 7.04,1.93 1.58,1.74 11.55,1.39 -32.03,-41.91 -49.72,-44.2 -81.75,-27.42 -31.56,16.55 -43.13,46.97 -38.51,80.83z"/>
  <path class="fil4" d="M917.01 831.47l9.56 -15.63c17.1,-39.47 83.78,-39.09 117.48,-35.13 -65.27,-62.98 -121.66,-20.13 -126.99,-2 -3,10.16 -2.71,38.8 -0.05,52.76z"/>
 </g>
</svg>
