<?xml version="1.0" encoding="UTF-8"?>
<!DOCTYPE svg PUBLIC "-//W3C//DTD SVG 1.1//EN" "http://www.w3.org/Graphics/SVG/1.1/DTD/svg11.dtd">
<!-- Creator: CorelDRAW 2020 (64-Bit) -->
<svg xmlns="http://www.w3.org/2000/svg" xml:space="preserve" width="36.8733mm" height="50.7969mm" version="1.1" style="shape-rendering:geometricPrecision; text-rendering:geometricPrecision; image-rendering:optimizeQuality; fill-rule:evenodd; clip-rule:evenodd"
viewBox="0 0 700.59 965.14"
 xmlns:xlink="http://www.w3.org/1999/xlink"
 xmlns:xodm="http://www.corel.com/coreldraw/odm/2003">
 <defs>
  <style type="text/css">
   <![CDATA[
    .fil1 {fill:#FEFEFE}
    .fil2 {fill:#ED3237}
    .fil0 {fill:black}
    .fil3 {fill:#ECC49B}
    .fil4 {fill:#F3E4DA}
   ]]>
  </style>
 </defs>
 <g id="Capa_x0020_1">
  <metadata id="CorelCorpID_0Corel-Layer"/>
  <g id="_2246235720976">
   <path class="fil0" d="M494.89 581.85c6.62,112.98 8.49,226.23 6.63,339.37l-0.33 19.78 -33.44 2.21c-1.23,12.24 -16.51,21.92 -35.18,21.92 -16.02,0 -29.54,-7.12 -33.83,-16.87 -26.26,1.91 -52.61,3.13 -78.86,2.11 -5.84,-0.23 -11.63,-0.57 -17.38,-1.02 -4.79,9.19 -17.9,15.78 -33.31,15.78 -19.47,0 -35.26,-10.52 -35.26,-23.51 0,-1.03 0.1,-2.04 0.29,-3.04 -8.52,-1.99 -17.04,-4.2 -25.59,-6.63l-9.94 -2.82 -0.15 -10.33c-0.44,-30.35 -1.93,-60.74 -2.25,-91.03 -0.11,-10.75 -0.36,-23.43 4.3,-33.6l-2.61 1.12 0.06 -17.57c0.06,-16.75 -0.14,-33.51 -0.15,-50.26 -0.01,-12.74 0.03,-25.49 0.38,-38.22 0.25,-9.08 0.48,-19.19 1.93,-28.15l0.55 -3.43 2.36 -2.56 1.71 -1.87 -0.19 -14.28 -0.54 -0.06 -2.26 -168.14c-37.73,28.76 -83.09,73.38 -125.19,54.5l-9.71 -4.36 0.25 -10.64c0.11,-4.69 0.15,-9 0.12,-13.02 -2.28,1.69 -4.55,3.35 -6.83,4.96 -21.11,15.02 -46.34,15.78 -56.35,1.71 -10.01,-14.07 -1.01,-37.65 20.1,-52.67 -14.84,9.95 -17.74,-7.8 -8.97,-12.78 5.39,-3.06 20.08,-5.95 30.61,-7.71l1.2 -0.26c-1.57,-2.55 -3.26,-5.23 -5.07,-8.05l-11.51 -17.94 20.43 -6.08c21.7,-6.46 54.74,-14.15 72.43,-28.47 11.05,-8.94 17.33,-20.8 21.75,-34.11 5.86,-17.67 12,-35.36 18.93,-52.65 4.83,-12.05 10.16,-24.31 16.62,-35.59 8.86,-15.48 20.88,-30.72 39.69,-33.42 7.01,-1.01 14,-0.06 20.86,1.87 10.03,-104.35 -21.37,-222.81 117.08,-215.76 96,4.88 89.61,87.95 91.49,154.1 2.01,70.96 17.09,54.28 44.15,90.3l0 -0.01c16.77,15.59 42.2,74.81 49.74,97.54 7.01,21.12 4.67,22.59 25.77,32.73 34.17,16.42 67.34,28.31 100.77,46.47 -5.17,9.74 -10.4,19.51 -15.54,29.35l0.13 0.03c10.53,1.77 25.22,4.65 30.61,7.71 8.77,4.98 5.87,22.73 -8.97,12.78 21.11,15.01 30.11,38.6 20.1,52.67 -10.01,14.07 -35.24,13.31 -56.35,-1.71 -4.78,-3.4 -9.57,-6.97 -14.34,-10.62 -4.73,11.7 -8.94,23.57 -12.4,35.66 -60.89,-20.95 -91.2,-33.97 -125.16,-69.98 2.7,37.55 7.13,103.19 6.64,104.53z"/>
   <path class="fil1" d="M289.15 532.22c45.95,-66.92 94.5,-187.09 117.28,-271.72 -10.23,1.11 -19.77,1.9 -28.72,2.39l0 -0 -0.02 0c-23.4,1.28 -42.8,0.47 -60.24,-2.33l-0.46 0.4c-20.43,-4.89 -37.49,-13.21 -55.68,-19.54 -43.53,-19.33 -58.05,-30.12 -101.05,99.49 -16.62,50.09 -49.73,56.51 -104.82,72.9 26,40.54 28.66,56.35 27.72,96.84 40.03,17.95 91.19,-46.43 134.26,-69.59l2.47 183.56c19.51,-13.84 52.48,-65.13 69.24,-92.4zm216.78 -238.23l0 -0.01c-0.69,-1.31 -3.21,-2.78 -4.02,1.99 -16.17,92.48 -65.3,217.64 -107.24,296.59 -25.9,48.75 -46.91,82.49 -80.98,120.92 -120.27,135.66 -104.09,12.7 -101.28,205.12 81.87,23.27 135.43,20.19 218.98,13.11 0.07,-62.22 -10.61,-110.23 11.7,-130.49 0.26,47.9 1.87,95.8 19.13,126.68l-3.94 -307.44c31.7,69.65 -2.48,288.41 29.35,300.53 2.57,-155.59 -1.92,-311.25 -16.27,-466.99 -0.53,-5.82 -0.72,-11.31 2.04,-19.29 27.11,36.29 45.76,63.22 129.24,91.95 13.36,-46.65 33.96,-69.12 50,-99.33 -17.92,13.27 -31.4,23.33 -45.75,37.29 6.76,-19.07 8.8,-24.03 22.11,-45.92 -127.23,-55.8 -72.42,-24.28 -123.08,-124.7l-0 0.01z"/>
   <path class="fil2" d="M211.59 662.95c-3.15,19.47 -1.91,82.2 -2.02,114.82 74.68,-31.95 136.48,-124.88 179.41,-209.03 21.4,-41.95 42.75,-93.78 60.24,-141.93l53.37 -147.78c-3.47,-9.4 -8.82,-17.15 -17.25,-25.16 -39.34,117.42 -66.13,258.31 -135.5,344.84 37.05,-104.53 65.86,-140.95 113.53,-294.44 18.44,-59.36 30.92,-64.13 -26.05,-75.76 -17.98,22.27 -40.48,102.37 -67.54,175.62 -31.35,84.87 -96.29,191.75 -158.2,258.82z"/>
   <path class="fil3" d="M402.55 248.43l1.78 -5.11 -25.03 -7.14 -0.04 -18.31c-7.34,-0.41 -19.78,8.07 -33.25,7.96 -14.69,-0.13 -21.88,-5.41 -33.14,-9.09l-0.25 20.35 -20.49 5.88c11.8,3.49 24.75,6.17 37.8,6.76 33.4,1.5 60.81,-0.28 72.64,-1.29z"/>
   <path class="fil3" d="M280.07 135.73c7.74,12.97 8.34,21.82 22.12,30.23 9.2,5.62 10.8,4.21 20.58,1.3 4.37,-1.3 12.41,3 21.41,3.07 8.73,0.07 18.25,-3.35 22.34,-3.02 9.79,0.79 9.82,5.76 23.36,-1.01 11.56,-5.78 16.36,-17.3 23.17,-30.81 0.09,10.92 -2.82,12.17 6.88,12.67 0.37,-12.39 -6.43,-26.43 -12.32,-38.92 -9.65,-20.5 -7.96,-26.27 -12.14,-46.07 -6.22,-29.56 -40.07,-15.91 -54.92,-18.76 -54.56,-10.49 -39.75,34.48 -53.52,59.35 -6.89,12.44 -14.84,27.37 -15.04,44.16 11.72,1.71 7.62,-3.19 8.08,-12.18z"/>
   <path class="fil3" d="M342.61 186.7l6.43 0.09c0.29,0.34 3.61,23.77 17.76,9.65 6.41,-6.4 5.15,-18.12 2.17,-26.33 -7.96,-0.22 -13.06,2.95 -23.15,2.86 -4.62,-0.04 -18.81,-2.93 -20.08,-2.45 -5.94,2.22 -8.33,24 3.64,28.54 11.32,4.28 10.82,-5.03 13.24,-12.35z"/>
  </g>
  <path class="fil0" d="M357.06 89.74c7.26,1.34 14.03,4.18 19.52,7.27 6.72,3.77 10.86,7.88 15.05,12.23 3.29,-3.5 4.74,-11.28 1.73,-15.62 -3.89,-5.62 -11.2,-11.37 -18.39,-13.26 -2.34,-0.62 -2.04,-0.47 -4.27,-0.45 -4.51,0.04 0.55,0.11 -2.64,-0.49 -4.74,-0.89 -10,6.15 -11.01,10.32z"/>
  <path class="fil0" d="M300.22 107.76c4.93,-3.36 3.07,-4.3 15.11,-10.07 6.26,-3 12.84,-4.68 20.35,-5.7 0.54,-4.31 -4.22,-11.4 -8.76,-11.78 -5.12,-0.42 -10.34,0.56 -15.04,2.77 -4.01,1.88 -9.65,6.41 -11.48,8.95 -2.74,3.8 -3.28,11.74 -0.18,15.82z"/>
  <path class="fil4" d="M380.49 123.03c-2.07,9.54 -13.45,7.04 -14.02,-0.39 -0.65,-8.49 10.45,-9.46 13.18,-3.86 -6.12,-2.18 -5.9,7.95 0.84,4.25zm-9.19 -9.48c-2.61,0.74 -3.64,-0.55 -6.65,5.18 -3.26,6.22 -5.32,10.03 3.8,13.63 3.05,1.21 6.9,1.06 9.99,0.05 2.58,-0.84 6.22,-2.61 7.91,-3.93 4.68,-3.63 -0.79,-15.15 -10.2,-15.68 -4.56,-0.26 -4.81,0.74 -4.86,0.75z"/>
  <path class="fil4" d="M326.84 124.82c-3.89,6.91 -13.08,5.11 -13.61,-2.25 -0.58,-8.13 7.58,-9.17 13.1,-4.96 -0.16,0.11 -0.4,0.19 -0.52,0.25l-3.74 1.8c-0.37,4.71 1.63,4.34 3.27,4.8l1.5 0.37zm5.76 2.11c-3.33,-6.16 -3.53,-12.56 -9.66,-13.82 -8.13,-1.67 -12.58,1 -15.72,7.22 -1.63,3.22 -2.98,5.44 0.1,7.94 1.87,1.52 6.13,3.42 8.21,4.04 10.59,3.17 14.71,-4.12 17.08,-5.38z"/>
  <path class="fil0" d="M380.49 123.03c-6.74,3.7 -6.96,-6.43 -0.84,-4.25 -2.73,-5.6 -13.83,-4.63 -13.18,3.86 0.57,7.43 11.95,9.93 14.02,0.39z"/>
  <path class="fil0" d="M326.84 124.82l-1.5 -0.37c-1.63,-0.46 -3.64,-0.09 -3.27,-4.8l3.74 -1.8c0.12,-0.06 0.36,-0.14 0.52,-0.25 -5.52,-4.2 -13.68,-3.16 -13.1,4.96 0.52,7.36 9.72,9.16 13.61,2.25z"/>
 </g>
</svg>
